<?xml version="1.0" encoding="utf-8"?>
<!-- Generator: Adobe Illustrator 16.0.3, SVG Export Plug-In . SVG Version: 6.00 Build 0)  -->
<!DOCTYPE svg PUBLIC "-//W3C//DTD SVG 1.1//EN" "http://www.w3.org/Graphics/SVG/1.1/DTD/svg11.dtd">
<svg version="1.1" id="圖層_1" xmlns="http://www.w3.org/2000/svg" xmlns:xlink="http://www.w3.org/1999/xlink" x="0px" y="0px"
	 width="180px" height="180px" viewBox="0 0 180 180" enable-background="new 0 0 180 180" xml:space="preserve">
<g>
	<circle fill="#4CB857" cx="90" cy="90" r="90"/>
</g>
<g>
	<g>
		<g>
			
				<rect x="100.302" y="97.373" transform="matrix(-0.7052 0.709 -0.709 -0.7052 253.0529 102.3801)" fill="#FFFFFF" width="9.883" height="12.845"/>
		</g>
		<g>
			<path fill="#FFFFFF" d="M112.572,101.336l24.531,24.377c1.935,1.926,1.941,5.053,0.018,6.986l-2.787,2.801
				c-1.926,1.936-5.052,1.941-6.984,0.018l-24.533-24.377"/>
		</g>
	</g>
	<g>
		<path fill="#FFFFFF" d="M75.331,110.782c-9.016,0-17.5-3.503-23.89-9.862c-6.413-6.379-9.957-14.876-9.979-23.925
			c-0.022-9.046,3.48-17.56,9.861-23.972c6.404-6.437,14.93-9.98,24.01-9.98c9.015,0,17.5,3.501,23.89,9.859
			c13.238,13.176,13.291,34.664,0.117,47.9C92.936,107.236,84.409,110.782,75.331,110.782z M75.332,50.18
			c-7.167,0-13.897,2.798-18.951,7.877c-5.037,5.061-7.8,11.78-7.783,18.922c0.018,7.141,2.815,13.847,7.876,18.882
			c5.044,5.021,11.741,7.785,18.856,7.785c7.166,0,13.895-2.799,18.949-7.877c10.396-10.447,10.355-27.409-0.094-37.809
			C89.143,52.943,82.447,50.18,75.332,50.18z"/>
	</g>
</g>
</svg>
