<?xml version="1.0" encoding="utf-8"?>
<!-- Generator: Adobe Illustrator 16.0.0, SVG Export Plug-In . SVG Version: 6.00 Build 0)  -->
<!DOCTYPE svg PUBLIC "-//W3C//DTD SVG 1.1//EN" "http://www.w3.org/Graphics/SVG/1.1/DTD/svg11.dtd">
<svg version="1.1" id="圖層_1" xmlns="http://www.w3.org/2000/svg" xmlns:xlink="http://www.w3.org/1999/xlink" x="0px" y="0px"
	 width="30px" height="30px" viewBox="0 0 30 30" enable-background="new 0 0 30 30" xml:space="preserve">
<g>
	<circle fill="#001970" cx="15" cy="15" r="15"/>
	<g>
		<path fill="#FFFFFF" d="M19.382,11.699c0.819-0.083,1.63-0.558,2.099-0.949l1.355-6.02c-1.896,4.432-6.515,4.753-10.451,6.269
			c-3.938,1.518-4.695,4.084-4.899,5.163c-0.204,1.078-0.321,2.712-0.321,2.712H8.52v2.216h1.735v-3.471h-1.37
			c-0.029-1.02,0.523-2.274,1.69-2.741c1.167-0.468,2.567,0.028,3.033,0.935c0.281,0.545,0.38,1.166,1.663,3.178
			c1.283,2.013,3.907,1.867,3.907,1.867l0.958-4.307c-0.383,0.077-0.789,0.133-1.338,0.021c-0.916-0.192-2.04-1.396-3.353-2.685
			c-1.316-1.289-4.226-0.667-4.226-0.667c0.379-0.293,1.82-0.688,3.06-0.47c1.527,0.27,2.771,1.865,3.936,2.391
			c0.734,0.331,1.629,0.224,2.192,0.097l0.873-3.66c-0.395,0.23-0.933,0.532-1.637,0.709c-1.412,0.358-3.179-0.43-4.636-0.646
			c-1.501-0.221-4.228,0.847-4.228,0.847c1.149-0.822,2.459-1.264,3.82-1.333c0.861-0.046,1.571,0.222,2.364,0.388
			C17.749,11.705,18.581,11.781,19.382,11.699L19.382,11.699z"/>
		<path fill="#FFFFFF" d="M20.724,21.826c0.204,0,1.313,0,1.313,0l0.291-0.75c0,0-1.201,0-1.27,0.004
			c-0.483,0.021-1.37-0.086-1.575,0.951c-0.163,0.824,0.638,1.014,1.015,1.096c0.542,0.117,0.506,0.416,0.226,0.42
			c-0.378,0.004-3.018,0-3.018,0v-0.434h1.235l0.227-0.834h-1.462v-0.424h1.581l0.223-0.766h-2.839v2.982l-0.926-0.875
			c0,0,0.574-0.088,0.574-0.934c0-0.848-0.524-1.174-1.048-1.174c-0.525,0-1.896,0-1.896,0v2.457L12.18,21.09h-1.925v3.181h1.021
			v-0.49h0.904l0.232,0.49h1.989v-0.899l0.865,0.899c0,0,5.107,0,5.573,0c0.467,0,1.111-0.153,1.181-0.913
			c0.038-0.418-0.185-0.818-1.297-1.006C20.246,22.271,20.367,21.826,20.724,21.826L20.724,21.826z M11.29,22.877v-1.135
			l0.607,1.135H11.29L11.29,22.877z M15.183,22.455c-0.146,0-0.781,0-0.781,0v-0.631c0,0,0.49,0,0.665,0s0.2,0.119,0.2,0.266
			C15.267,22.235,15.278,22.455,15.183,22.455L15.183,22.455z"/>
	</g>
</g>
</svg>
