<?xml version="1.0" encoding="utf-8"?>
<!-- Generator: Adobe Illustrator 16.0.0, SVG Export Plug-In . SVG Version: 6.00 Build 0)  -->
<!DOCTYPE svg PUBLIC "-//W3C//DTD SVG 1.1//EN" "http://www.w3.org/Graphics/SVG/1.1/DTD/svg11.dtd">
<svg version="1.1" id="圖層_1" xmlns="http://www.w3.org/2000/svg" xmlns:xlink="http://www.w3.org/1999/xlink" x="0px" y="0px"
	 width="30px" height="30px" viewBox="0 0 30 30" enable-background="new 0 0 30 30" xml:space="preserve">
<path fill="#405694" d="M15,0C6.716,0,0,6.716,0,15c0,8.285,6.716,15,15,15s15-6.715,15-15C30,6.716,23.284,0,15,0z M20.723,7.639
	L18.647,7.64c-1.626,0-1.94,0.773-1.94,1.908v2.501h3.879l-0.002,3.918h-3.877v10.054H12.66V15.967H9.277v-3.918h3.383v-2.89
	c0-3.353,2.049-5.179,5.039-5.179l3.023,0.005V7.639L20.723,7.639z"/>
</svg>
