<?xml version="1.0" encoding="utf-8"?>
<!-- Generator: Adobe Illustrator 16.0.3, SVG Export Plug-In . SVG Version: 6.00 Build 0)  -->
<!DOCTYPE svg PUBLIC "-//W3C//DTD SVG 1.1//EN" "http://www.w3.org/Graphics/SVG/1.1/DTD/svg11.dtd">
<svg version="1.1" id="圖層_1" xmlns="http://www.w3.org/2000/svg" xmlns:xlink="http://www.w3.org/1999/xlink" x="0px" y="0px"
	 width="29.925px" height="35px" viewBox="1.45 0 29.925 35" enable-background="new 1.45 0 29.925 35" xml:space="preserve">
<g>
	<g>
		<path fill="#FFFFFF" d="M6.179,10.688C4.118,8.564,1.541,8.564,1.541,8.564s-0.623,2.89,1.383,4.967
			c2.005,2.07,4.711,1.743,4.711,1.743S8.23,12.808,6.179,10.688z"/>
		<path fill="#FFFFFF" d="M13.189,5.799c0,0-2.092,1.507-2.522,4.427c-0.433,2.923,1.488,4.578,1.488,4.578s2.384-1.309,2.81-4.159
			C15.39,7.792,13.189,5.799,13.189,5.799z"/>
		<path fill="#FFFFFF" d="M15.643,12.903c0,0-1.878,1.76-1.925,4.722c-0.049,2.953,2.068,4.341,2.068,4.341s2.199-1.615,2.25-4.49
			C18.079,14.592,15.643,12.903,15.643,12.903z"/>
		<path fill="#FFFFFF" d="M20.202,17.073c0,0-1.704,1.936-1.476,4.886c0.226,2.948,2.468,4.127,2.468,4.127s2.037-1.812,1.818-4.686
			C22.787,18.529,20.202,17.073,20.202,17.073z"/>
		<path fill="#FFFFFF" d="M24.437,21.294c0,0-1.071,2.336-0.01,5.102c1.067,2.758,3.553,3.245,3.553,3.245s1.432-2.324,0.393-5.016
			C27.326,21.938,24.437,21.294,24.437,21.294z"/>
		<path fill="#FFFFFF" d="M8.599,8.967c0,0,1.867-1.72,1.335-4.627C9.401,1.43,7.26,0,7.26,0S5.136,2.065,5.656,4.901
			C6.168,7.737,8.599,8.967,8.599,8.967z"/>
		<path fill="#FFFFFF" d="M2.334,16.225c0,0,0.254,2.954,2.779,4.343c2.529,1.392,5.021,0.282,5.021,0.282s-0.154-2.534-2.75-3.959
			C4.794,15.467,2.334,16.225,2.334,16.225z"/>
		<path fill="#FFFFFF" d="M5.881,22.971c0,0,0.905,2.819,3.68,3.614c2.771,0.79,4.952-0.843,4.952-0.843s-0.711-2.432-3.555-3.245
			C8.114,21.688,5.881,22.971,5.881,22.971z"/>
		<path fill="#FFFFFF" d="M10.338,29.189c0,0,1.719,2.42,4.599,2.342c2.884-0.088,4.47-2.308,4.47-2.308s-1.422-2.101-4.377-2.017
			C12.071,27.293,10.338,29.189,10.338,29.189z"/>
		<path fill="#FFFFFF" d="M17.069,33.182c0,0,1.992,2.188,4.843,1.764c2.854-0.431,4.163-2.823,4.163-2.823s-1.655-1.917-4.58-1.479
			C18.566,31.087,17.069,33.182,17.069,33.182z"/>
		<path fill="#FFFFFF" d="M30.98,32.582l0.395-1.352C9.381,24.771,9.549,10.99,9.568,10.408l-1.41-0.049
			C8.154,10.509,7.878,25.804,30.98,32.582z"/>
	</g>
</g>
</svg>
