<?xml version="1.0" encoding="utf-8"?>
<!-- Generator: Adobe Illustrator 16.0.0, SVG Export Plug-In . SVG Version: 6.00 Build 0)  -->
<!DOCTYPE svg PUBLIC "-//W3C//DTD SVG 1.1//EN" "http://www.w3.org/Graphics/SVG/1.1/DTD/svg11.dtd">
<svg version="1.1" id="圖層_1" xmlns="http://www.w3.org/2000/svg" xmlns:xlink="http://www.w3.org/1999/xlink" x="0px" y="0px"
	 width="120px" height="40px" viewBox="0 0 120 40" enable-background="new 0 0 120 40" xml:space="preserve">
<g>
	<g>
		<g>
			<path fill="#2977A3" stroke="#FFFFFF" stroke-width="3" stroke-linecap="round" stroke-linejoin="round" d="M29.529,13.72
				l-3.849,3.573c-0.83-0.951-1.847-1.686-3.044-2.199c-1.201-0.515-2.505-0.775-3.909-0.775c-1.964,0-3.846,0.503-5.643,1.507
				c-1.807,1.003-3.203,2.333-4.208,3.984c-1.002,1.652-1.503,3.41-1.503,5.28c0,2.541,0.88,4.655,2.644,6.341
				c1.758,1.686,4.02,2.525,6.778,2.525c2.947,0,5.501-0.859,7.661-2.577l3.12,4.144c-3.203,2.26-6.912,3.389-11.123,3.389
				c-2.961,0-5.479-0.561-7.552-1.682c-2.076-1.118-3.741-2.77-4.998-4.943C2.647,30.113,2.02,27.757,2.02,25.22
				c0-2.718,0.74-5.322,2.229-7.813c1.486-2.495,3.5-4.457,6.04-5.893c2.539-1.436,5.31-2.153,8.311-2.153
				C22.806,9.36,26.451,10.813,29.529,13.72z"/>
			<path fill="#2977A3" stroke="#FFFFFF" stroke-width="3" stroke-linecap="round" stroke-linejoin="round" d="M33.861,10.055h5.125
				l-3.868,28.164h-5.077L33.861,10.055z"/>
			<path fill="#2977A3" stroke="#FFFFFF" stroke-width="3" stroke-linecap="round" stroke-linejoin="round" d="M46.977,2.617h6.087
				l6.028,24.808L71.359,2.617h5.732l0.494,35.602h-6.248l-0.197-21.302L60.606,38.219H55.4l-5.433-22.361l-5.666,22.361h-6.339
				L46.977,2.617z"/>
			<path fill="#2977A3" stroke="#FFFFFF" stroke-width="3" stroke-linecap="round" stroke-linejoin="round" d="M84.918,10.055h15.17
				l-0.639,5.008h-9.896l-0.789,5.8h9.945l-0.633,4.96h-9.984l-1.014,7.487h10.041l-0.625,4.908H81.098L84.918,10.055z"/>
			<path fill="#2977A3" stroke="#FFFFFF" stroke-width="3" stroke-linecap="round" stroke-linejoin="round" d="M117.98,13.99
				l-3.846,3.403c-1.584-2.051-3.061-3.074-4.426-3.074c-0.676,0-1.238,0.203-1.684,0.603c-0.449,0.404-0.672,0.883-0.672,1.445
				c0,0.523,0.203,1.104,0.611,1.742s1.648,2.049,3.717,4.229c1.096,1.162,1.814,1.985,2.16,2.471
				c0.832,1.123,1.43,2.172,1.795,3.148c0.361,0.977,0.545,1.968,0.545,2.978c0,2.257-0.807,4.152-2.412,5.683
				c-1.605,1.533-3.664,2.295-6.18,2.295c-3.82,0-6.941-1.818-9.348-5.45l4.043-3.269c1.629,2.508,3.391,3.764,5.287,3.764
				c0.902,0,1.658-0.295,2.279-0.879c0.615-0.591,0.924-1.301,0.924-2.13c0-0.65-0.188-1.313-0.561-1.993
				c-0.375-0.676-1.445-1.952-3.209-3.83c-1.867-1.979-3.092-3.472-3.676-4.48c-0.789-1.366-1.184-2.706-1.184-4.021
				c0-1.736,0.568-3.295,1.705-4.675c1.426-1.726,3.35-2.587,5.771-2.587C112.951,9.36,115.736,10.906,117.98,13.99z"/>
		</g>
		<path fill="#F49020" stroke="#FFFFFF" stroke-width="3" stroke-linecap="round" stroke-linejoin="round" d="M39.791,5.655
			c-0.053,1.799-1.555,3.258-3.354,3.258s-3.215-1.458-3.163-3.258c0.058-1.796,1.557-3.258,3.359-3.258
			C38.431,2.397,39.847,3.858,39.791,5.655z"/>
	</g>
	<g>
		<path fill="#1D429A" d="M29.529,13.884l-3.849,3.575c-0.83-0.954-1.847-1.688-3.044-2.203c-1.201-0.514-2.505-0.775-3.909-0.775
			c-1.964,0-3.846,0.506-5.643,1.507c-1.807,1.004-3.203,2.335-4.208,3.986c-1.002,1.651-1.503,3.41-1.503,5.281
			c0,2.539,0.88,4.655,2.644,6.338c1.758,1.688,4.02,2.527,6.778,2.527c2.947,0,5.501-0.861,7.661-2.576l3.12,4.143
			c-3.203,2.26-6.912,3.39-11.123,3.39c-2.961,0-5.479-0.563-7.552-1.683c-2.076-1.12-3.741-2.77-4.998-4.943
			c-1.256-2.174-1.883-4.529-1.883-7.068c0-2.713,0.74-5.32,2.229-7.813c1.486-2.495,3.5-4.458,6.04-5.891
			c2.539-1.436,5.31-2.154,8.311-2.154C22.806,9.523,26.451,10.977,29.529,13.884z"/>
		<path fill="#1D429A" d="M33.861,10.22h5.125l-3.868,28.163h-5.077L33.861,10.22z"/>
		<path fill="#1D429A" d="M46.977,2.781h6.087l6.028,24.808L71.359,2.781h5.732l0.494,35.602h-6.248l-0.197-21.298L60.606,38.383
			H55.4l-5.433-22.364l-5.666,22.364h-6.339L46.977,2.781z"/>
		<path fill="#1D429A" d="M84.918,10.22h15.17l-0.639,5.008h-9.896l-0.789,5.799h9.945l-0.633,4.959h-9.984l-1.014,7.488h10.041
			l-0.625,4.908H81.098L84.918,10.22z"/>
		<path fill="#1D429A" d="M117.98,14.157l-3.846,3.401c-1.584-2.05-3.061-3.077-4.426-3.077c-0.676,0-1.238,0.204-1.684,0.605
			c-0.449,0.401-0.672,0.882-0.672,1.444c0,0.523,0.203,1.105,0.611,1.742c0.408,0.638,1.648,2.05,3.717,4.23
			c1.096,1.16,1.814,1.985,2.16,2.471c0.832,1.122,1.43,2.171,1.795,3.146c0.361,0.977,0.545,1.969,0.545,2.977
			c0,2.26-0.807,4.155-2.412,5.686c-1.605,1.532-3.664,2.296-6.18,2.296c-3.82,0-6.941-1.818-9.348-5.454l4.043-3.266
			c1.629,2.506,3.391,3.764,5.287,3.764c0.902,0,1.658-0.295,2.279-0.88c0.615-0.591,0.924-1.299,0.924-2.128
			c0-0.652-0.188-1.315-0.561-1.99c-0.375-0.679-1.445-1.955-3.209-3.834c-1.867-1.978-3.092-3.473-3.676-4.48
			c-0.789-1.366-1.184-2.708-1.184-4.024c0-1.736,0.568-3.294,1.705-4.673c1.426-1.724,3.35-2.587,5.771-2.587
			C112.951,9.523,115.736,11.068,117.98,14.157z"/>
	</g>
	<path fill="#F79522" d="M40.609,4.392c-0.053,1.798-1.555,3.256-3.354,3.256s-3.215-1.458-3.163-3.256
		c0.058-1.798,1.557-3.26,3.359-3.26C39.25,1.132,40.665,2.593,40.609,4.392z"/>
</g>
</svg>
