<?xml version="1.0" encoding="utf-8"?>
<!-- Generator: Adobe Illustrator 16.0.3, SVG Export Plug-In . SVG Version: 6.00 Build 0)  -->
<!DOCTYPE svg PUBLIC "-//W3C//DTD SVG 1.1//EN" "http://www.w3.org/Graphics/SVG/1.1/DTD/svg11.dtd">
<svg version="1.1" id="圖層_1" xmlns="http://www.w3.org/2000/svg" xmlns:xlink="http://www.w3.org/1999/xlink" x="0px" y="0px"
	 width="16px" height="16px" viewBox="0 0 16 16" enable-background="new 0 0 16 16" xml:space="preserve">
<g>
	<g>
		<g>
			<path fill="#FFFFFF" d="M15.181,12.363l-2.322-2.32c-0.463-0.461-1.229-0.447-1.707,0.031l-1.17,1.17
				c-0.074-0.041-0.15-0.084-0.23-0.129c-0.738-0.408-1.75-0.971-2.813-2.035C5.871,8.014,5.309,7.002,4.899,6.262
				C4.855,6.184,4.814,6.108,4.773,6.038l0.785-0.785l0.386-0.387c0.479-0.479,0.493-1.244,0.031-1.707L3.653,0.836
				C3.191,0.375,2.425,0.389,1.946,0.87L1.292,1.528L1.31,1.545C1.09,1.825,0.907,2.147,0.771,2.497
				c-0.126,0.33-0.205,0.646-0.24,0.965c-0.307,2.541,0.855,4.863,4.007,8.015c4.357,4.357,7.868,4.027,8.02,4.012
				c0.329-0.039,0.646-0.119,0.967-0.242c0.346-0.135,0.668-0.318,0.947-0.537l0.015,0.012l0.663-0.648
				C15.628,13.594,15.642,12.826,15.181,12.363z"/>
		</g>
	</g>
</g>
</svg>
