<?xml version="1.0" encoding="utf-8"?>
<!-- Generator: Adobe Illustrator 16.0.3, SVG Export Plug-In . SVG Version: 6.00 Build 0)  -->
<!DOCTYPE svg PUBLIC "-//W3C//DTD SVG 1.1//EN" "http://www.w3.org/Graphics/SVG/1.1/DTD/svg11.dtd">
<svg version="1.1" id="圖層_1" xmlns="http://www.w3.org/2000/svg" xmlns:xlink="http://www.w3.org/1999/xlink" x="0px" y="0px"
	 width="30px" height="30px" viewBox="0 0 30 30" enable-background="new 0 0 30 30" xml:space="preserve">
<g>
	<ellipse fill="#E45348" cx="15.001" cy="15" rx="15.002" ry="14.962"/>
	<g>
		<path fill="#FFFFFF" d="M16.475,18.273c-0.162,0-0.326,0.078-0.49,0.238v3.295c0.164,0.162,0.328,0.241,0.49,0.241
			c0.283,0,0.428-0.241,0.428-0.729v-2.305C16.902,18.521,16.758,18.273,16.475,18.273L16.475,18.273z"/>
		<path fill="#FFFFFF" d="M20.061,18.273c-0.328,0-0.492,0.248-0.492,0.75v0.502h0.98v-0.502
			C20.549,18.521,20.385,18.273,20.061,18.273L20.061,18.273z"/>
		<path fill="#FFFFFF" d="M22.098,14.563c-0.617-0.642-1.307-0.644-1.623-0.682c-2.266-0.161-5.661-0.161-5.661-0.161h-0.008
			c0,0-3.395,0-5.662,0.161c-0.316,0.038-1.004,0.041-1.621,0.682C7.039,15.052,6.88,16.16,6.88,16.16s-0.16,1.3-0.16,2.6v1.221
			c0,1.301,0.16,2.604,0.16,2.604s0.158,1.107,0.643,1.596c0.617,0.641,1.426,0.619,1.783,0.688
			c1.297,0.124,5.506,0.159,5.506,0.159s3.397-0.004,5.663-0.168c0.316-0.037,1.006-0.039,1.623-0.68
			c0.484-0.488,0.644-1.596,0.644-1.596S22.9,21.281,22.9,19.98V18.76c0-1.3-0.159-2.601-0.159-2.601S22.582,15.052,22.098,14.563
			L22.098,14.563z M10.287,22.863H9.195V16.63H8.041v-1.021h3.42v1.021h-1.174V22.863z M14.154,22.863h-0.982v-0.59
			c-0.389,0.445-0.76,0.664-1.119,0.664c-0.316,0-0.535-0.129-0.635-0.401c-0.053-0.164-0.086-0.423-0.086-0.806V17.46h0.982v3.978
			c0,0.229,0,0.351,0.006,0.381c0.027,0.152,0.102,0.23,0.232,0.23c0.197,0,0.402-0.15,0.619-0.46V17.46h0.982L14.154,22.863
			L14.154,22.863z M17.883,21.243c0,0.498-0.033,0.858-0.1,1.088c-0.131,0.401-0.395,0.606-0.783,0.606
			c-0.35,0-0.688-0.192-1.016-0.599v0.524h-0.981v-7.254h0.981v2.369c0.317-0.39,0.654-0.588,1.016-0.588
			c0.389,0,0.65,0.207,0.783,0.61c0.066,0.22,0.1,0.575,0.1,1.088V21.243z M21.531,20.339h-1.963v0.959
			c0,0.501,0.164,0.751,0.502,0.751c0.242,0,0.383-0.132,0.438-0.395c0.01-0.051,0.021-0.271,0.021-0.663h1.002v0.146
			c0,0.313-0.014,0.53-0.021,0.629c-0.031,0.217-0.111,0.412-0.229,0.588c-0.273,0.392-0.676,0.586-1.189,0.586
			c-0.512,0-0.902-0.187-1.186-0.557c-0.207-0.27-0.314-0.695-0.314-1.271v-1.891c0-0.578,0.096-1,0.303-1.273
			c0.285-0.369,0.674-0.555,1.176-0.555c0.492,0,0.884,0.186,1.156,0.555c0.205,0.273,0.306,0.695,0.306,1.273L21.531,20.339
			L21.531,20.339z"/>
		<path fill="#FFFFFF" d="M12.22,12.225V9.257l1.322-4.361h-1.113l-0.75,2.879L10.9,4.896H9.744
			c0.232,0.679,0.475,1.363,0.703,2.043c0.354,1.021,0.574,1.793,0.674,2.318v2.968H12.22z"/>
		<path fill="#FFFFFF" d="M14.8,12.301c0.496,0,0.882-0.187,1.157-0.56c0.207-0.271,0.309-0.701,0.309-1.284V8.544
			c0-0.582-0.102-1.01-0.309-1.285c-0.275-0.374-0.661-0.561-1.157-0.561c-0.496,0-0.881,0.188-1.154,0.561
			c-0.211,0.275-0.309,0.703-0.309,1.285v1.913c0,0.583,0.098,1.013,0.309,1.284C13.919,12.114,14.304,12.301,14.8,12.301
			L14.8,12.301z M14.328,8.347c0-0.507,0.152-0.759,0.473-0.759c0.318,0,0.471,0.253,0.471,0.759v2.297
			c0,0.506-0.152,0.757-0.471,0.757c-0.32,0-0.473-0.251-0.473-0.757V8.347z"/>
		<path fill="#FFFFFF" d="M19.877,12.225V6.763h-0.99v4.176c-0.221,0.309-0.428,0.463-0.627,0.463c-0.133,0-0.213-0.08-0.232-0.231
			c-0.012-0.032-0.012-0.152-0.012-0.385V6.763h-0.988v4.321c0,0.384,0.031,0.646,0.086,0.811c0.101,0.276,0.322,0.406,0.642,0.406
			c0.358,0,0.736-0.22,1.134-0.671v0.595H19.877z"/>
	</g>
</g>
</svg>
