<svg xmlns="http://www.w3.org/2000/svg" width="140" height="57.059" viewBox="0 0 140 57.059">
  <g id="Group_190" data-name="Group 190" transform="translate(-69.098 -35.008)">
    <g id="Group_188" data-name="Group 188" transform="translate(69.098 35.008)">
      <path id="Path_169" data-name="Path 169" d="M102.99,55.081a11.492,11.492,0,0,0,5.8-2.768l3.792-17.3c-5.241,12.805-18.062,13.728-28.989,18-10.927,4.384-13.045,11.766-13.6,14.882s-.892,7.727-.892,7.727h3.678v6.462h4.906V72.037h-3.9c0-2.882,1.561-6.46,4.794-7.842a6.745,6.745,0,0,1,8.362,2.652,57.119,57.119,0,0,0,4.57,9.115c3.568,5.767,10.928,5.421,10.928,5.421l2.676-12.344a8.339,8.339,0,0,1-3.79,0c-2.565-.576-5.688-4.037-9.254-7.729-3.681-3.691-11.708-1.846-11.708-1.846,1-.922,5.017-1.959,8.475-1.383,4.237.807,7.691,5.307,10.924,6.922a9.876,9.876,0,0,0,6.022.23l2.452-10.5a17.679,17.679,0,0,1-4.569,2.076c-3.9.923-8.81-1.269-12.824-1.961-4.125-.577-11.7,2.538-11.7,2.538a18.994,18.994,0,0,1,10.592-3.922c2.341-.116,4.346.692,6.578,1.153a21.6,21.6,0,0,0,6.687.462" transform="translate(-69.098 -35.008)" fill="#fff"/>
      <path id="Path_170" data-name="Path 170" d="M113.239,117.229h3.677l.781-2.116h-3.454c-1.452.112-3.9-.224-4.461,2.676-.444,2.342,1.784,2.785,2.9,3.011,1.449.333,1.336,1.225.556,1.225h-8.363V120.8h3.457l.556-2.341h-4.013v-1.117h4.349l.668-2.117h-7.915v8.252l-2.565-2.453s1.673-.223,1.673-2.565a2.923,2.923,0,0,0-3.012-3.234H96.962v2h.556c.557,0,.557.337.557.67,0,.447.112,1.116-.221,1.116h-.892v3.79l1.113,1.226h15.5c1.34,0,3.125-.446,3.236-2.566.108-1.114-.448-2.227-3.569-2.785-1.337-.223-1-1.451,0-1.451m-16.278-2H92.836v6.8l-3.233-6.8H87.931v3.345l.781,1.561h-.781v2.563H89.6l.556,1.338h5.574v-2.566l1.228,1.339v-3.79H95.733v-1.786h1.228Zm-9.031,0H84.25v8.807h2.788v-1.338h.892V120.13h-.892v-3.124l.892,1.563Z" transform="translate(-75.666 -68.158)" fill="#fff"/>
    </g>
    <rect id="Rectangle_109" data-name="Rectangle 109" width="91.759" height="4.459" transform="translate(117.339 87.608)" fill="#fff"/>
    <g id="Group_189" data-name="Group 189" transform="translate(117.177 67.69)">
      <path id="Path_171" data-name="Path 171" d="M153.883,91.187c0-.334-6.133-.892-6.469-.557-.557.333-.221,1,.671,1.225.889.335,5.8-.223,5.8-.668" transform="translate(-147.142 -90.182)" fill="#fff"/>
      <path id="Path_172" data-name="Path 172" d="M154.015,95.371c.109-.223-5.91-.333-6.357-.333s-.222,1,1,1.337c1.337.224,5.241-.334,5.353-1" transform="translate(-147.275 -92.138)" fill="#fff"/>
      <path id="Path_173" data-name="Path 173" d="M154.518,115.95c.559-.112,1.784-.334,1.784-.556,0-.336-5.907,0-7.023,0s-1.116.11-.556.668a3.388,3.388,0,0,0,3.233.78,13.2,13.2,0,0,1,2.562-.892" transform="translate(-147.668 -100.897)" fill="#fff"/>
      <path id="Path_174" data-name="Path 174" d="M169.463,115.941c-1-.223-1.115-.668-1-.668.445-.112,6.914,0,7.247,0,.224,0-.668,1.337-2.117,1.782-1,.448-2.565-.779-4.126-1.114" transform="translate(-156.368 -100.888)" fill="#fff"/>
      <path id="Path_175" data-name="Path 175" d="M166.25,99.759h-8.475v1.116h6.69c.335,0,.335,1.115,0,1.115h-6.69v1h6.69c.335,0,.335,1.114,0,1.114h-6.69v1.115h6.69c.335,0,.335,1.115,0,1.115h-6.69v1.227h8.475a.861.861,0,0,0,.78-.892v-6.132a.762.762,0,0,0-.78-.782m-8.475,0h-8.584a.762.762,0,0,0-.78.782v6.132a.861.861,0,0,0,.78.892h8.584v-1.227h-6.8c-.224,0-.224-1.115,0-1.115h6.8v-1.115h-6.8c-.224,0-.224-1.114,0-1.114h6.8v-1h-6.8c-.224,0-.224-1.115,0-1.115h6.8Z" transform="translate(-147.693 -94.184)" fill="#fff"/>
      <path id="Path_176" data-name="Path 176" d="M171.553,90.923a.525.525,0,0,0-.556-.557H163.75l.668-.448h-2.788l-2.565,2.23h1.9a5.319,5.319,0,0,1,1.228-.669c.112-.111,1.893-.223,1.893.223v.781c-1,.892-5.238,1.672-5.238,1.672v.335h4.794a4.085,4.085,0,0,1,1.225-1.115c.672-.334,1,0,1,0l1.228,1.115h4.458v-.446a14.132,14.132,0,0,1-5.017-1.561V91.7c0-.223,0-.223.336-.334h2.452c.224.111.336.223.336.447,0,.556-1.116,1.226-1.116,1.226H171a.623.623,0,0,0,.556-.67Z" transform="translate(-152.215 -89.918)" fill="#fff"/>
      <path id="Path_177" data-name="Path 177" d="M190.74,93.691c.557,0,1-.67,1.336-1.226.223-.447.336-1,0-1-.444,0-3.121-.222-3.121.336,0,.445,1.225,1.895,1.784,1.895" transform="translate(-165.269 -90.568)" fill="#fff"/>
      <path id="Path_178" data-name="Path 178" d="M192.329,96.794c-.444,0-2.676-.112-2.785.223-.112.892,1.449,2.12,1.893,2.12.336,0,1-.671,1.228-1.228.333-.444,0-1.115-.336-1.115" transform="translate(-165.521 -92.891)" fill="#fff"/>
      <path id="Path_179" data-name="Path 179" d="M210.881,90.7a1.135,1.135,0,0,0,.78-.781h-4.237v2.565a35.74,35.74,0,0,1,3.457-1.784m-3.457,10.371h1.561v.445l-1.561,1.338v.223h2.9a.745.745,0,0,0,.779-.668V94.824a.763.763,0,0,0-.779-.781h-2.9V95.16h1.449c.335,0,.224,1.672,0,1.672h-1.449v1.225h1.449c.335,0,.224,1.673,0,1.673h-1.449Zm0-11.151h-5.685v1.45h3.789c.447,0-.333,1.45-1.448,1.45a3.179,3.179,0,0,1-2.23-.448h-.112v1l.892.668h-.892V95.16h1.449c.335,0,.223,1.672,0,1.672h-1.449v1.225h1.449c.335,0,.223,1.673,0,1.673h-1.449v1.34h1.672v2.005c0,.448,1.784.335,2.229-.781a3.439,3.439,0,0,0,.112-1.225h1.672V99.73h-1.449c-.223,0-.223-1.673,0-1.673h1.449V96.832h-1.449c-.223,0-.223-1.672,0-1.672h1.449V94.044h-.892c-.333-.112-.112-.781.225-1.115a6.714,6.714,0,0,1,.667-.446Zm0,12.934v.223H207.2Zm-5.685-12.934H198.17c-1.113,0-.334,1.45.335,1.45h3.234Zm0,2.453c-.445-.332-1.449-.11-1.449-.11l1.449,1.115Zm0,1.673h-2.9a.941.941,0,0,0-.783.781V103.3a3.522,3.522,0,0,0,1.671-2.229h2.009V99.73h-1.449c-.224,0-.224-1.673,0-1.673h1.449V96.832h-1.449c-.224,0-.224-1.672,0-1.672h1.449Z" transform="translate(-169.02 -89.918)" fill="#fff"/>
      <path id="Path_180" data-name="Path 180" d="M207.557,109.343H194.514c-1.784,0-2.009-.781-2.009-1.336V103.1a.944.944,0,0,0-.892-.781h-3.234c-.556,0,.557,1.45.557,1.45h1.452v3.009h-.335c-.113-.112-.224-.112-.334-.222-.448-.223-1-.67-1-.558-.224.112,1.338,1.9,1.225,2.453,0,.558-1,1.784-1.225,2.34-.336.559-.892.892-.336.781a16.728,16.728,0,0,0,2.341-1.561.976.976,0,0,1,1.117.113,2.023,2.023,0,0,0,1.672.892h12.709c.448,0,.892-.557,1.115-1.117a5.06,5.06,0,0,0,.224-.556" transform="translate(-164.916 -95.294)" fill="#fff"/>
      <path id="Path_181" data-name="Path 181" d="M302.382,89.918h1.9l-2.341,2.677,2.453,2.453h-2.008l-2.23-2.453Z" transform="translate(-213.473 -89.918)" fill="#fff"/>
      <path id="Path_182" data-name="Path 182" d="M289,89.918h2l-2.34,2.677,2.34,2.453h-2l-2.232-2.453Z" transform="translate(-207.671 -89.918)" fill="#fff"/>
      <path id="Path_183" data-name="Path 183" d="M295.692,89.918h1.9l-2.232,2.677,2.344,2.453h-2.009l-2.229-2.453Z" transform="translate(-210.573 -89.918)" fill="#fff"/>
      <path id="Path_184" data-name="Path 184" d="M276.537,100.4c.669,0,1.226.223,1.226.447v3.677c0,.336-.668.782-1.226,1.117v.556h2.341c1,0,1-1.225,1-1.561V90.587a.644.644,0,0,0-.672-.669h-2.674V91.7h.557a.76.76,0,0,1,.779.781V93.71a.76.76,0,0,1-.779.781h-.557v1.338h.557a.793.793,0,0,1,.779.892v1.115a.794.794,0,0,1-.779.892h-.557Zm-3.344-9.923V106.2a4.158,4.158,0,0,0,1.784-3.121,15.837,15.837,0,0,0,.11-2.229c0-.224.782-.447,1.449-.447V98.728h-.559a.8.8,0,0,1-.781-.892V96.72a.8.8,0,0,1,.781-.892h.559V94.49h-.559a.763.763,0,0,1-.781-.781V92.483a.763.763,0,0,1,.781-.781h.559V89.918h-2.676a.623.623,0,0,0-.668.558m3.344,15.164v.556h-.78c-.112,0,.221-.222.78-.556" transform="translate(-201.786 -89.918)" fill="#fff"/>
      <path id="Path_185" data-name="Path 185" d="M297.781,100.929h-4.57l1.673-1.561h-1.452l-.668.333v2.9h3.012a.859.859,0,0,1,.889.78v4.458a.86.86,0,0,1-.889.782h-3.012v1.672h5.017a.8.8,0,0,0,.781-.892v-7.692a.762.762,0,0,0-.781-.781M292.765,99.7l-2.566,1.228h-2.452a.763.763,0,0,0-.781.781V109.4a.8.8,0,0,0,.781.892h5.018v-1.672h-3.122a.763.763,0,0,1-.781-.782v-4.458a.761.761,0,0,1,.781-.78h3.122Z" transform="translate(-207.757 -94.015)" fill="#fff"/>
      <path id="Path_186" data-name="Path 186" d="M296.366,108.441c1.116-1,1.673-1.895,1.339-2.229-.335-.224-1.56.224-2.787,1.226-1.337-.892-2.566-1.337-2.9-1.114s.332,1.225,1.449,2.229c-1.117,1-1.673,2.009-1.34,2.23s1.564-.221,2.789-1.226c1.335.892,2.564,1.449,2.9,1.115.333-.223-.336-1.226-1.452-2.231" transform="translate(-209.91 -96.957)" fill="#fff"/>
      <path id="Path_187" data-name="Path 187" d="M240.385,99.274h-4.126c-.22,0-.22-.891,0-.891h4.126c.224,0,.224.891,0,.891" transform="translate(-185.703 -93.588)" fill="#fff"/>
      <path id="Path_188" data-name="Path 188" d="M240.385,102.226h-4.126c-.22,0-.22-.892,0-.892h4.126c.224,0,.224.892,0,.892" transform="translate(-185.703 -94.867)" fill="#fff"/>
      <path id="Path_189" data-name="Path 189" d="M231.432,89.918h18.173c.336,0,.448.224.448.558-.112.334-.335.892-.672.892h-7.47v1.339h7.694s.557.222.557.668v3.569c0,.444-2.452.78-2.452.444V94.713A1.3,1.3,0,0,0,246.6,93.6h-4.573v3.232c0,.334-3.009,1-3.009.445V93.6h-5.13c-.668,0-.781,1.114-.781,1.893a10.561,10.561,0,0,1,0,1.9c0,.447-2.23,0-2.23-.444V93.263a.722.722,0,0,1,.669-.556h7.471V91.368h-7.471c-.333,0-.444-.558-.556-1-.113-.224.112-.448.445-.448" transform="translate(-183.44 -89.918)" fill="#fff"/>
      <path id="Path_190" data-name="Path 190" d="M256.129,99.274H252c-.221,0-.221-.891,0-.891h4.126c.223,0,.335.891,0,.891" transform="translate(-192.528 -93.588)" fill="#fff"/>
      <path id="Path_191" data-name="Path 191" d="M256.129,102.226H252c-.221,0-.221-.892,0-.892h4.126c.223,0,.335.892,0,.892" transform="translate(-192.528 -94.867)" fill="#fff"/>
      <path id="Path_192" data-name="Path 192" d="M248.38,111.206h-3.345v1.561h5.127c.224,0-.781-1.561-1.782-1.561m-3.345-1.225h4.237a.958.958,0,0,0,.889-.892v-3.233a.858.858,0,0,0-.889-.78h-4.237v1h2.9c.223,0,.112,1,0,1h-2.9v1h2.9c.223,0,.112,1,0,1h-2.9Zm0,1.225h-2.564c-.669,0-.448.113-.448-.779v-.445h3.012v-.892h-2.9c-.22,0-.22-1,0-1h2.9v-1h-2.9c-.22,0-.22-1,0-1h2.9v-1H236v1h2.9c.223,0,.112,1,0,1H236v1h2.9c.223,0,.112,1,0,1H236v.892h3.01v1.782c0,.335.224,1,1.449,1h4.572ZM236,105.076h-4.348a.762.762,0,0,0-.782.78v3.233a.864.864,0,0,0,.782.892H236v-.892h-2.9c-.22,0-.22-1,0-1H236v-1h-2.9c-.22,0-.22-1,0-1H236Z" transform="translate(-183.44 -96.489)" fill="#fff"/>
    </g>
  </g>
</svg>
