<?xml version="1.0" encoding="utf-8"?>
<!-- Generator: Adobe Illustrator 24.0.1, SVG Export Plug-In . SVG Version: 6.00 Build 0)  -->
<svg version="1.1" id="圖層_1" xmlns="http://www.w3.org/2000/svg" xmlns:xlink="http://www.w3.org/1999/xlink" x="0px" y="0px"
	 viewBox="0 0 101.7 44" style="enable-background:new 0 0 101.7 44;" xml:space="preserve">
<style type="text/css">
	.st0{fill:#1D429A;}
	.st1{fill:#F79522;}
</style>
<g>
	<g>
		<path class="st0" d="M26.2,16c1.6-0.2,3.2-1.1,4.2-1.9L33.1,2c-3.8,8.9-13,9.6-20.9,12.5c-7.9,3.1-9.4,8.2-9.8,10.4
			c-0.4,2.2-0.6,5.4-0.6,5.4h2.7v4.5H8v-7H5.2c0-2,1.1-4.5,3.5-5.5c2.3-1,5.1,0.1,6,1.8c0.6,1.1,0.8,2.3,3.3,6.4
			c2.6,4,7.9,3.8,7.9,3.8l1.9-8.6c-0.8,0.2-1.6,0.2-2.7,0c-1.8-0.4-4.1-2.8-6.7-5.4C15.7,17.8,9.9,19,9.9,19c0.7-0.6,3.6-1.4,6.1-1
			c3.1,0.6,5.5,3.7,7.9,4.8c1.4,0.6,3.2,0.4,4.3,0.2l1.8-7.3c-0.8,0.5-1.8,1-3.3,1.4c-2.8,0.6-6.4-0.9-9.2-1.4
			c-3-0.4-8.4,1.8-8.4,1.8c2.3-1.7,4.9-2.6,7.6-2.7c1.7-0.1,3.1,0.5,4.7,0.8C22.9,16,24.6,16.1,26.2,16"/>
		<path class="st0" d="M28.9,36.2h2.7l0.6-1.5h-2.5c-1,0.1-2.8-0.2-3.2,1.9c-0.3,1.7,1.3,2,2.1,2.2c1,0.2,1,0.9,0.4,0.9h-6v-0.9h2.5
			l0.4-1.7h-2.9v-0.8H26l0.5-1.5h-5.7v5.9L18.9,39c0,0,1.2-0.2,1.2-1.8c0-1.7-1.1-2.3-2.2-2.3h-0.8v1.4h0.4c0.4,0,0.4,0.2,0.4,0.5
			c0,0.3,0.1,0.8-0.2,0.8h-0.6v2.7l0.8,0.9h11.2c1,0,2.3-0.3,2.3-1.8c0.1-0.8-0.3-1.6-2.6-2C27.9,37.1,28.1,36.2,28.9,36.2
			 M17.1,34.8h-3v4.9l-2.3-4.9h-1.2v2.4l0.6,1.1h-0.6v1.8h1.2l0.4,1h4v-1.8l0.9,1v-2.7h-0.9v-1.3h0.9V34.8z M10.6,34.8H8v6.3h2v-1
			h0.6v-1.8H10v-2.3l0.6,1.1V34.8z"/>
	</g>
	<rect x="33.8" y="38.8" class="st1" width="66.2" height="3.2"/>
	<g>
		<path class="st0" d="M38.5,25.2c0-0.2-4.4-0.6-4.7-0.4c-0.4,0.2-0.2,0.7,0.5,0.9C35,25.9,38.5,25.5,38.5,25.2"/>
		<path class="st0" d="M38.5,26.8c0.1-0.2-4.3-0.2-4.6-0.2c-0.3,0-0.2,0.7,0.7,1C35.6,27.6,38.4,27.2,38.5,26.8"/>
		<path class="st0" d="M38.6,35.3c0.4-0.1,1.3-0.2,1.3-0.4c0-0.2-4.3,0-5.1,0c-0.8,0-0.8,0.1-0.4,0.5c0.5,0.5,1.6,0.9,2.3,0.6
			C37.2,35.8,37.7,35.4,38.6,35.3"/>
		<path class="st0" d="M43.1,35.3c-0.7-0.2-0.8-0.5-0.7-0.5c0.3-0.1,5,0,5.2,0c0.2,0-0.5,1-1.5,1.3C45.4,36.4,44.2,35.5,43.1,35.3"
			/>
		<path class="st0" d="M47,28.4h-6.1v0.8h4.8c0.2,0,0.2,0.8,0,0.8h-4.8v0.7h4.8c0.2,0,0.2,0.8,0,0.8h-4.8v0.8h4.8
			c0.2,0,0.2,0.8,0,0.8h-4.8v0.9H47c0.3,0,0.6-0.3,0.6-0.6V29C47.6,28.7,47.4,28.4,47,28.4 M40.9,28.4h-6.2c-0.3,0-0.6,0.2-0.6,0.6
			v4.4c0,0.3,0.2,0.6,0.6,0.6h6.2v-0.9H36c-0.2,0-0.2-0.8,0-0.8h4.9v-0.8H36c-0.2,0-0.2-0.8,0-0.8h4.9v-0.7H36c-0.2,0-0.2-0.8,0-0.8
			h4.9V28.4z"/>
		<path class="st0" d="M47.6,25.2c0-0.2-0.2-0.4-0.4-0.4h-5H42l0.5-0.3h-2L38.6,26H40c0,0,0.6-0.4,0.9-0.5c0.1-0.1,1.4-0.2,1.4,0.2
			v0.6c-0.7,0.6-3.8,1.2-3.8,1.2v0.2h3.5c0,0,0.4-0.6,0.9-0.8c0.5-0.2,0.7,0,0.7,0l0.9,0.8h3.2v-0.3c-1.7-0.1-3.6-1.1-3.6-1.1v-0.6
			c0-0.2,0-0.2,0.2-0.2H46c0.2,0.1,0.2,0.2,0.2,0.3c0,0.4-0.8,0.9-0.8,0.9h1.8c0.2,0,0.4-0.2,0.4-0.5V25.2z"/>
		<path class="st0" d="M52,26.7c0.4,0,0.7-0.5,1-0.9c0.2-0.3,0.2-0.7,0-0.7c-0.3,0-2.2-0.2-2.2,0.2C50.7,25.6,51.6,26.7,52,26.7"/>
		<path class="st0" d="M53,27.2c-0.3,0-1.9-0.1-2,0.2c-0.1,0.6,1,1.5,1.4,1.5c0.2,0,0.7-0.5,0.9-0.9C53.5,27.7,53.2,27.2,53,27.2"/>
		<path class="st0" d="M63.8,25c0.5-0.2,0.6-0.6,0.6-0.6h-3.1v1.8C62.2,25.8,63.6,25.1,63.8,25 M61.3,32.5h1.1v0.3l-1.1,1v0.2h1.8
			h0.2h0.1c0.3,0,0.6-0.2,0.6-0.5v-0.1V28c0-0.3-0.2-0.6-0.6-0.6h-2.1v0.8h1c0.2,0,0.2,1.2,0,1.2h-1v0.9h1c0.2,0,0.2,1.2,0,1.2h-1
			V32.5z M61.3,24.4h-4.1v1H60c0.3,0-0.2,1-1,1c-0.7,0.1-1.3-0.1-1.6-0.3h-0.1v0.7l0.6,0.5h-0.6v0.8h1c0.2,0,0.2,1.2,0,1.2h-1v0.9h1
			c0.2,0,0.2,1.2,0,1.2h-1v1h1.2v1.4c0,0.3,1.3,0.2,1.6-0.6c0.1-0.2,0.1-0.5,0.1-0.9h1.2v-1h-1c-0.2,0-0.2-1.2,0-1.2h1v-0.9h-1
			c-0.2,0-0.2-1.2,0-1.2h1v-0.8h-0.6c-0.2-0.1-0.1-0.6,0.2-0.8c0.1-0.1,0.2-0.2,0.5-0.3V24.4z M61.3,33.8v0.2h-0.2L61.3,33.8z
			 M57.2,24.4h-2.6c-0.8,0-0.2,1,0.2,1h2.3V24.4z M57.2,26.2c-0.3-0.2-1-0.1-1-0.1l1,0.8V26.2z M57.2,27.4h-2.1
			c-0.2,0-0.5,0.2-0.6,0.6v6.1c0.7-0.3,1-1.1,1.2-1.6h1.4v-1h-1c-0.2,0-0.2-1.2,0-1.2h1v-0.9h-1c-0.2,0-0.2-1.2,0-1.2h1V27.4z"/>
		<path class="st0" d="M64.4,34.6H55c-1.3,0-1.4-0.6-1.4-1V33v-2.9v-0.1c-0.1-0.3-0.3-0.6-0.6-0.6h-0.3h-0.1h-1.9
			c-0.4,0,0.4,1,0.4,1h1v2.2h-0.1h-0.1h-0.1c-0.1-0.1-0.2-0.1-0.2-0.2c-0.3-0.2-0.7-0.5-0.7-0.4c-0.2,0.1,1,1.4,0.9,1.8
			c0,0.4-0.7,1.3-0.9,1.7c-0.2,0.4-0.6,0.6-0.2,0.6c0.3-0.1,1.4-1,1.7-1.1c0.3-0.2,0.6-0.1,0.8,0.1c0.2,0.2,0.5,0.6,1.2,0.6h9.2
			c0.3,0,0.6-0.4,0.8-0.8C64.3,34.8,64.4,34.6,64.4,34.6"/>
		<polygon class="st0" points="97.8,24.4 99.1,24.4 97.4,26.4 99.2,28.1 97.8,28.1 96.2,26.4 		"/>
		<polygon class="st0" points="92.3,24.4 93.7,24.4 92.1,26.4 93.7,28.1 92.3,28.1 90.7,26.4 		"/>
		<polygon class="st0" points="95,24.4 96.4,24.4 94.8,26.4 96.5,28.1 95,28.1 93.4,26.4 		"/>
		<path class="st0" d="M87.6,32c0.5,0,0.9,0.2,0.9,0.3V35c0,0.2-0.5,0.6-0.9,0.8v0.4h1.7c0.7,0,0.7-0.9,0.7-1.1V24.9
			c0-0.3-0.2-0.5-0.5-0.5h-1.9v1.3H88c0.3,0,0.6,0.2,0.6,0.6v0.9c0,0.3-0.2,0.6-0.6,0.6h-0.4v1H88c0.3,0,0.6,0.2,0.6,0.6v0.8
			c0,0.4-0.2,0.6-0.6,0.6h-0.4V32z M85.1,24.8v11.3c0,0,1-0.6,1.3-2.2c0.1-0.6,0.1-1,0.1-1.6c0-0.2,0.6-0.3,1-0.3v-1.2h-0.4
			c-0.3,0-0.6-0.2-0.6-0.6v-0.8c0-0.4,0.2-0.6,0.6-0.6h0.4v-1h-0.4c-0.3,0-0.6-0.2-0.6-0.6v-0.9c0-0.3,0.2-0.6,0.6-0.6h0.4v-1.3
			h-1.9C85.4,24.4,85.1,24.6,85.1,24.8 M87.6,35.8v0.4H87C86.9,36.2,87.1,36,87.6,35.8"/>
		<path class="st0" d="M98.6,29.4h-3.3l1.2-1.1h-1l-0.5,0.2v2.1h2.2c0.3,0,0.6,0.2,0.6,0.6v3.2c0,0.3-0.3,0.6-0.6,0.6h-2.2v1.2h3.6
			c0.3,0,0.6-0.2,0.6-0.6V30C99.1,29.7,98.9,29.4,98.6,29.4 M94.9,28.5l-1.8,0.9h-1.8c-0.3,0-0.6,0.2-0.6,0.6v5.5
			c0,0.4,0.2,0.6,0.6,0.6h3.6V35h-2.3c-0.3,0-0.6-0.2-0.6-0.6v-3.2c0-0.3,0.2-0.6,0.6-0.6h2.3V28.5z"/>
		<path class="st0" d="M96,32.7c0.8-0.7,1.2-1.4,1-1.6c-0.2-0.2-1.1,0.2-2,0.9c-1-0.6-1.8-1-2.1-0.8c-0.2,0.2,0.2,0.9,1,1.6
			c-0.8,0.7-1.2,1.4-1,1.6c0.2,0.2,1.1-0.2,2-0.9c1,0.6,1.8,1,2.1,0.8C97.3,34.2,96.8,33.4,96,32.7"/>
		<path class="st0" d="M73.1,28.5h-3c-0.2,0-0.2-0.6,0-0.6h3C73.2,27.9,73.2,28.5,73.1,28.5"/>
		<path class="st0" d="M73.1,29.7h-3c-0.2,0-0.2-0.6,0-0.6h3C73.2,29.1,73.2,29.7,73.1,29.7"/>
		<path class="st0" d="M68.3,24.4h13.1c0.2,0,0.3,0.2,0.3,0.4c-0.1,0.2-0.2,0.6-0.5,0.6h-5.4v1h5.5c0,0,0.4,0.2,0.4,0.5v2.6
			c0,0.3-1.8,0.6-1.8,0.3v-1.9c0-0.3-0.4-0.8-0.8-0.8h-3.3v2.3c0,0.2-2.2,0.7-2.2,0.3v-2.7H70c-0.5,0-0.6,0.8-0.6,1.4
			c0,0.4,0.1,1.1,0,1.4c0,0.3-1.6,0-1.6-0.3v-2.7c0-0.1,0.2-0.4,0.5-0.4h5.4v-1h-5.4c-0.2,0-0.3-0.4-0.4-0.7
			C67.9,24.6,68,24.4,68.3,24.4"/>
		<path class="st0" d="M79.5,28.5h-3c-0.2,0-0.2-0.6,0-0.6h3C79.7,27.9,79.8,28.5,79.5,28.5"/>
		<path class="st0" d="M79.5,29.7h-3c-0.2,0-0.2-0.6,0-0.6h3C79.7,29.1,79.8,29.7,79.5,29.7"/>
		<path class="st0" d="M80.5,35h-2.4v1.1h3.7C81.9,36.2,81.2,35,80.5,35 M78.1,34.2h3.1c0.3,0,0.6-0.3,0.6-0.6v-2.3
			c0-0.3-0.3-0.6-0.6-0.6h-3.1v0.7h2.1c0.2,0,0.1,0.7,0,0.7h-2.1v0.7h2.1c0.2,0,0.1,0.7,0,0.7h-2.1V34.2z M78.1,35h-1.8
			c-0.5,0-0.3,0.1-0.3-0.6v-0.3h2.2v-0.6H76c-0.2,0-0.2-0.7,0-0.7h2.1v-0.7H76c-0.2,0-0.2-0.7,0-0.7h2.1v-0.7h-6.5v0.7h2.1
			c0.2,0,0.1,0.7,0,0.7h-2.1v0.7h2.1c0.2,0,0.1,0.7,0,0.7h-2.1v0.6h2.2v1.3c0,0.2,0.2,0.7,1,0.7h3.3V35z M71.6,30.6h-3.1
			c-0.3,0-0.6,0.2-0.6,0.6v2.3c0,0.3,0.2,0.6,0.6,0.6h3.1v-0.6h-2.1c-0.2,0-0.2-0.7,0-0.7h2.1v-0.7h-2.1c-0.2,0-0.2-0.7,0-0.7h2.1
			V30.6z"/>
	</g>
</g>
</svg>
