<?xml version="1.0" encoding="utf-8"?>
<!-- Generator: Adobe Illustrator 23.0.3, SVG Export Plug-In . SVG Version: 6.00 Build 0)  -->
<svg version="1.1" id="圖層_1" xmlns="http://www.w3.org/2000/svg" xmlns:xlink="http://www.w3.org/1999/xlink" x="0px" y="0px"
	 viewBox="0 0 101.17 41.24" style="enable-background:new 0 0 101.17 41.24;" xml:space="preserve">
<style type="text/css">
	.st0{fill:#FFFFFF;}
</style>
<g>
	<g>
		<path class="st0" d="M25.19,14.42c1.66-0.17,3.32-1.16,4.31-1.99L32.32,0c-3.89,9.2-13.42,9.86-21.54,12.93
			c-8.12,3.15-9.69,8.45-10.11,10.69C0.25,25.85,0,29.17,0,29.17h2.73v4.64h3.65V26.6h-2.9c0-2.07,1.16-4.64,3.56-5.63
			c2.4-0.99,5.22,0.08,6.21,1.91c0.58,1.16,0.83,2.4,3.4,6.55c2.65,4.14,8.12,3.89,8.12,3.89l1.99-8.87c-0.83,0.17-1.66,0.25-2.82,0
			c-1.91-0.41-4.23-2.9-6.88-5.55c-2.74-2.65-8.7-1.33-8.7-1.33c0.75-0.66,3.73-1.41,6.3-0.99c3.15,0.58,5.72,3.81,8.12,4.97
			c1.49,0.66,3.32,0.41,4.48,0.16l1.82-7.54c-0.83,0.5-1.91,1.08-3.4,1.49c-2.9,0.66-6.55-0.91-9.53-1.41
			c-3.07-0.41-8.7,1.82-8.7,1.82c2.32-1.74,5.05-2.65,7.87-2.82c1.74-0.08,3.23,0.5,4.89,0.83C21.79,14.42,23.53,14.58,25.19,14.42"
			/>
		<path class="st0" d="M27.92,35.3h2.73l0.58-1.57h-2.57c-1.08,0.08-2.9-0.17-3.32,1.99c-0.33,1.74,1.33,2.07,2.16,2.24
			c1.08,0.25,0.99,0.91,0.41,0.91h-6.21v-0.91h2.57l0.41-1.74h-2.98v-0.83h3.23l0.5-1.57h-5.88v6.13l-1.91-1.82
			c0,0,1.24-0.17,1.24-1.91c0-1.74-1.16-2.4-2.24-2.4h-0.83v1.49h0.41c0.41,0,0.41,0.25,0.41,0.5c0,0.33,0.08,0.83-0.17,0.83h-0.66
			v2.82l0.83,0.91h11.52c1,0,2.32-0.33,2.41-1.91c0.08-0.83-0.33-1.66-2.65-2.07C26.93,36.21,27.18,35.3,27.92,35.3 M15.83,33.81
			h-3.06v5.05l-2.4-5.05H9.11v2.48l0.58,1.16H9.11v1.9h1.24l0.41,1h4.14v-1.91l0.91,0.99v-2.82h-0.91V35.3h0.91V33.81z M9.11,33.81
			H6.38v6.54h2.07v-1h0.66v-1.9H8.45v-2.32l0.66,1.16V33.81z"/>
	</g>
	<rect x="32.98" y="37.92" class="st0" width="68.19" height="3.31"/>
	<g>
		<path class="st0" d="M37.87,23.87c0-0.25-4.56-0.66-4.81-0.41c-0.41,0.25-0.16,0.75,0.5,0.91C34.22,24.61,37.87,24.2,37.87,23.87"
			/>
		<path class="st0" d="M37.87,25.52c0.08-0.17-4.39-0.25-4.72-0.25c-0.33,0-0.16,0.75,0.75,0.99
			C34.88,26.43,37.79,26.02,37.87,25.52"/>
		<path class="st0" d="M37.95,34.3c0.42-0.08,1.33-0.25,1.33-0.41c0-0.25-4.39,0-5.22,0c-0.83,0-0.83,0.08-0.41,0.5
			c0.5,0.5,1.66,0.91,2.4,0.58C36.54,34.8,37.04,34.47,37.95,34.3"/>
		<path class="st0" d="M42.59,34.3c-0.75-0.16-0.83-0.5-0.75-0.5c0.33-0.08,5.14,0,5.39,0c0.17,0-0.5,0.99-1.57,1.32
			C44.91,35.47,43.75,34.55,42.59,34.3"/>
		<path class="st0" d="M46.65,27.26h-6.3v0.83h4.97c0.25,0,0.25,0.83,0,0.83h-4.97v0.75h4.97c0.25,0,0.25,0.83,0,0.83h-4.97v0.83
			h4.97c0.25,0,0.25,0.83,0,0.83h-4.97v0.91h6.3c0.33,0,0.58-0.33,0.58-0.66v-4.56C47.23,27.51,46.98,27.26,46.65,27.26
			 M40.35,27.26h-6.38c-0.33,0-0.58,0.25-0.58,0.58v4.56c0,0.33,0.25,0.66,0.58,0.66h6.38v-0.91H35.3c-0.17,0-0.17-0.83,0-0.83h5.05
			v-0.83H35.3c-0.17,0-0.17-0.83,0-0.83h5.05v-0.75H35.3c-0.17,0-0.17-0.83,0-0.83h5.05V27.26z"/>
		<path class="st0" d="M47.23,23.87c0-0.25-0.16-0.41-0.41-0.41h-5.14h-0.25l0.5-0.33h-2.07l-1.91,1.66h1.41c0,0,0.58-0.42,0.91-0.5
			c0.08-0.08,1.41-0.17,1.41,0.17v0.58c-0.74,0.66-3.89,1.24-3.89,1.24v0.25h3.56c0,0,0.41-0.58,0.91-0.83c0.5-0.25,0.75,0,0.75,0
			l0.91,0.83h3.31v-0.33c-1.74-0.08-3.73-1.16-3.73-1.16v-0.58c0-0.17,0-0.17,0.25-0.25h1.82c0.17,0.08,0.25,0.16,0.25,0.33
			c0,0.41-0.83,0.91-0.83,0.91h1.82c0.25,0,0.41-0.25,0.41-0.5V23.87z"/>
		<path class="st0" d="M51.79,25.44c0.41,0,0.75-0.5,0.99-0.91c0.17-0.33,0.25-0.75,0-0.75c-0.33,0-2.32-0.16-2.32,0.25
			C50.46,24.36,51.37,25.44,51.79,25.44"/>
		<path class="st0" d="M52.78,26.02c-0.33,0-1.99-0.08-2.07,0.17c-0.08,0.66,1.08,1.58,1.41,1.58c0.25,0,0.75-0.5,0.91-0.91
			C53.28,26.52,53.03,26.02,52.78,26.02"/>
		<path class="st0" d="M63.97,23.7c0.5-0.17,0.58-0.58,0.58-0.58H61.4v1.91C62.23,24.53,63.72,23.78,63.97,23.7 M61.4,31.41h1.16
			v0.33l-1.16,1v0.17h1.91h0.17h0.08c0.33,0,0.58-0.25,0.58-0.5v-0.08v-5.55c0-0.33-0.25-0.58-0.58-0.58H61.4v0.83h1.08
			c0.25,0,0.17,1.24,0,1.24H61.4v0.91h1.08c0.25,0,0.17,1.24,0,1.24H61.4V31.41z M61.4,23.12h-4.23v1.08h2.82
			c0.33,0-0.25,1.08-1.08,1.08c-0.75,0.08-1.33-0.08-1.66-0.33h-0.08v0.75l0.66,0.5h-0.66v0.83h1.08c0.25,0,0.17,1.24,0,1.24h-1.08
			v0.91h1.08c0.25,0,0.17,1.24,0,1.24h-1.08v1h1.24v1.49c0,0.33,1.33,0.25,1.66-0.58c0.08-0.17,0.08-0.5,0.08-0.91h1.24v-1h-1.08
			c-0.17,0-0.17-1.24,0-1.24h1.08v-0.91h-1.08c-0.17,0-0.17-1.24,0-1.24h1.08v-0.83h-0.66c-0.25-0.08-0.08-0.58,0.17-0.83
			c0.08-0.08,0.25-0.17,0.5-0.33V23.12z M61.4,32.73v0.17h-0.17L61.4,32.73z M57.17,23.12h-2.65c-0.83,0-0.25,1.08,0.25,1.08h2.4
			V23.12z M57.17,24.94c-0.33-0.25-1.08-0.08-1.08-0.08l1.08,0.83V24.94z M57.17,26.18h-2.15c-0.25,0-0.5,0.25-0.58,0.58v6.3
			c0.75-0.33,1.08-1.16,1.24-1.66h1.49v-1H56.1c-0.17,0-0.17-1.24,0-1.24h1.08v-0.91H56.1c-0.17,0-0.17-1.24,0-1.24h1.08V26.18z"/>
		<path class="st0" d="M64.55,33.56h-9.69c-1.33,0-1.49-0.58-1.49-0.99v-0.58V29v-0.08c-0.08-0.33-0.33-0.58-0.66-0.58h-0.33h-0.08
			H50.3c-0.41,0,0.41,1.08,0.41,1.08h1.08v2.24H51.7h-0.08h-0.08c-0.08-0.08-0.17-0.08-0.25-0.17c-0.33-0.17-0.75-0.5-0.75-0.41
			c-0.17,0.08,0.99,1.41,0.91,1.82c0,0.42-0.75,1.33-0.91,1.74c-0.25,0.41-0.66,0.66-0.25,0.58c0.33-0.08,1.49-0.99,1.74-1.16
			c0.33-0.16,0.66-0.08,0.83,0.09c0.25,0.25,0.5,0.66,1.24,0.66h9.44c0.33,0,0.66-0.41,0.83-0.83
			C64.47,33.81,64.55,33.56,64.55,33.56"/>
		<polygon class="st0" points="98.93,23.12 100.34,23.12 98.6,25.11 100.43,26.93 98.93,26.93 97.28,25.11 		"/>
		<polygon class="st0" points="93.3,23.12 94.79,23.12 93.05,25.11 94.79,26.93 93.3,26.93 91.64,25.11 		"/>
		<polygon class="st0" points="96.12,23.12 97.53,23.12 95.87,25.11 97.61,26.93 96.12,26.93 94.46,25.11 		"/>
		<path class="st0" d="M88.41,30.91c0.5,0,0.91,0.17,0.91,0.33v2.73c0,0.25-0.5,0.58-0.91,0.83v0.41h1.74
			c0.75,0,0.75-0.91,0.75-1.16V23.62c0-0.33-0.25-0.5-0.5-0.5h-1.99v1.33h0.41c0.33,0,0.58,0.25,0.58,0.58v0.91
			c0,0.33-0.25,0.58-0.58,0.58h-0.41v1h0.41c0.33,0,0.58,0.25,0.58,0.66V29c0,0.41-0.25,0.66-0.58,0.66h-0.41V30.91z M85.93,23.53
			v11.68c0,0,1.08-0.58,1.33-2.32c0.08-0.66,0.08-1.08,0.08-1.66c0-0.17,0.58-0.33,1.08-0.33v-1.24H88c-0.33,0-0.58-0.25-0.58-0.66
			v-0.83c0-0.41,0.25-0.66,0.58-0.66h0.41v-1H88c-0.33,0-0.58-0.25-0.58-0.58v-0.91c0-0.33,0.25-0.58,0.58-0.58h0.41v-1.33h-1.99
			C86.17,23.12,85.93,23.28,85.93,23.53 M88.41,34.8v0.41h-0.58C87.75,35.22,88,35.05,88.41,34.8"/>
		<path class="st0" d="M99.76,28.26h-3.4l1.24-1.16h-1.08l-0.5,0.25v2.16h2.24c0.33,0,0.66,0.25,0.66,0.58v3.31
			c0,0.33-0.33,0.58-0.66,0.58h-2.24v1.24h3.73c0.33,0,0.58-0.25,0.58-0.66v-5.72C100.34,28.5,100.1,28.26,99.76,28.26 M96.03,27.34
			l-1.91,0.91h-1.82c-0.33,0-0.58,0.25-0.58,0.58v5.72c0,0.41,0.25,0.66,0.58,0.66h3.73v-1.24h-2.32c-0.33,0-0.58-0.25-0.58-0.58
			v-3.31c0-0.33,0.25-0.58,0.58-0.58h2.32V27.34z"/>
		<path class="st0" d="M97.11,31.65c0.83-0.75,1.24-1.41,1-1.66c-0.25-0.17-1.16,0.17-2.07,0.91c-0.99-0.66-1.91-0.99-2.15-0.83
			c-0.25,0.17,0.25,0.91,1.08,1.66c-0.83,0.75-1.24,1.49-1,1.66c0.25,0.17,1.16-0.17,2.07-0.91c0.99,0.66,1.91,1.08,2.16,0.83
			C98.44,33.15,97.94,32.4,97.11,31.65"/>
		<path class="st0" d="M73.5,27.34h-3.07c-0.16,0-0.16-0.66,0-0.66h3.07C73.66,26.68,73.66,27.34,73.5,27.34"/>
		<path class="st0" d="M73.5,28.59h-3.07c-0.16,0-0.16-0.66,0-0.66h3.07C73.66,27.92,73.66,28.59,73.5,28.59"/>
		<path class="st0" d="M68.52,23.12h13.51c0.25,0,0.33,0.17,0.33,0.41c-0.08,0.25-0.25,0.66-0.5,0.66h-5.55v1h5.72
			c0,0,0.41,0.17,0.41,0.5v2.65c0,0.33-1.82,0.58-1.82,0.33v-1.99c0-0.33-0.41-0.83-0.83-0.83h-3.4v2.4c0,0.25-2.24,0.75-2.24,0.33
			v-2.73h-3.81c-0.5,0-0.58,0.83-0.58,1.41c0,0.41,0.08,1.16,0,1.41c0,0.33-1.66,0-1.66-0.33V25.6c0-0.08,0.17-0.41,0.5-0.41h5.55
			v-1h-5.55c-0.25,0-0.33-0.42-0.41-0.75C68.11,23.28,68.28,23.12,68.52,23.12"/>
		<path class="st0" d="M80.13,27.34h-3.07c-0.16,0-0.16-0.66,0-0.66h3.07C80.29,26.68,80.38,27.34,80.13,27.34"/>
		<path class="st0" d="M80.13,28.59h-3.07c-0.16,0-0.16-0.66,0-0.66h3.07C80.29,27.92,80.38,28.59,80.13,28.59"/>
		<path class="st0" d="M81.12,34.05h-2.49v1.16h3.81C82.61,35.22,81.86,34.05,81.12,34.05 M78.64,33.15h3.15
			c0.33,0,0.66-0.33,0.66-0.66v-2.4c0-0.33-0.33-0.58-0.66-0.58h-3.15v0.75h2.15c0.17,0,0.08,0.75,0,0.75h-2.15v0.75h2.15
			c0.17,0,0.08,0.75,0,0.75h-2.15V33.15z M78.64,34.05h-1.91c-0.5,0-0.33,0.09-0.33-0.58v-0.33h2.24v-0.66h-2.16
			c-0.16,0-0.16-0.75,0-0.75h2.16v-0.75h-2.16c-0.16,0-0.16-0.75,0-0.75h2.16V29.5h-6.71v0.75h2.15c0.17,0,0.08,0.75,0,0.75h-2.15
			v0.75h2.15c0.17,0,0.08,0.75,0,0.75h-2.15v0.66h2.24v1.32c0,0.25,0.17,0.75,1.08,0.75h3.4V34.05z M71.92,29.5h-3.23
			c-0.33,0-0.58,0.25-0.58,0.58v2.4c0,0.33,0.25,0.66,0.58,0.66h3.23v-0.66h-2.16c-0.16,0-0.16-0.75,0-0.75h2.16v-0.75h-2.16
			c-0.16,0-0.16-0.75,0-0.75h2.16V29.5z"/>
	</g>
</g>
</svg>
