<?xml version="1.0" encoding="utf-8"?>
<!-- Generator: Adobe Illustrator 16.0.0, SVG Export Plug-In . SVG Version: 6.00 Build 0)  -->
<!DOCTYPE svg PUBLIC "-//W3C//DTD SVG 1.1//EN" "http://www.w3.org/Graphics/SVG/1.1/DTD/svg11.dtd">
<svg version="1.1" id="圖層_1" xmlns="http://www.w3.org/2000/svg" xmlns:xlink="http://www.w3.org/1999/xlink" x="0px" y="0px"
	 width="70px" height="70px" viewBox="0 0 70 70" enable-background="new 0 0 70 70" xml:space="preserve">
<path fill="#4F4599" d="M46.46,36.512c0.064-0.493,0.109-0.988,0.109-1.512s-0.045-1.019-0.109-1.512l3.256-2.545
	c0.292-0.229,0.368-0.646,0.184-0.985l-3.082-5.337c-0.14-0.247-0.401-0.386-0.679-0.386c-0.094,0-0.188,0.016-0.264,0.047
	l-3.838,1.541c-0.804-0.615-1.667-1.124-2.607-1.51l-0.587-4.086c-0.046-0.372-0.368-0.648-0.755-0.648H31.92
	c-0.386,0-0.708,0.276-0.757,0.648l-0.586,4.086c-0.941,0.386-1.804,0.91-2.605,1.51l-3.838-1.541
	c-0.095-0.031-0.187-0.047-0.281-0.047c-0.26,0-0.523,0.139-0.661,0.386l-3.084,5.337c-0.2,0.339-0.11,0.756,0.186,0.985
	l3.254,2.545c-0.063,0.493-0.109,1.003-0.109,1.512s0.047,1.019,0.109,1.512l-3.254,2.545c-0.296,0.229-0.369,0.646-0.186,0.985
	l3.084,5.337c0.138,0.247,0.401,0.386,0.677,0.386c0.094,0,0.188-0.016,0.266-0.047l3.838-1.541c0.802,0.615,1.664,1.124,2.605,1.51
	l0.586,4.086c0.049,0.372,0.371,0.648,0.757,0.648h6.167c0.387,0,0.709-0.276,0.755-0.648l0.587-4.086
	c0.94-0.386,1.804-0.91,2.607-1.51l3.838,1.541c0.091,0.031,0.185,0.047,0.278,0.047c0.263,0,0.524-0.139,0.664-0.386l3.082-5.337
	c0.185-0.339,0.108-0.756-0.184-0.985L46.46,36.512z M44.039,33.789c0.066,0.514,0.082,0.863,0.082,1.211
	c0,0.347-0.031,0.712-0.082,1.211l-0.232,1.87l1.476,1.164l1.788,1.391l-1.158,2.006l-2.105-0.846l-1.726-0.695l-1.491,1.125
	c-0.713,0.531-1.393,0.93-2.072,1.212l-1.756,0.712l-0.267,1.874l-0.33,2.237h-2.321l-0.314-2.237l-0.266-1.874l-1.758-0.712
	c-0.713-0.298-1.374-0.681-2.038-1.177l-1.509-1.16l-1.759,0.712l-2.104,0.846l-1.158-2.005l1.787-1.393l1.476-1.161l-0.231-1.872
	c-0.05-0.516-0.081-0.896-0.081-1.228s0.031-0.712,0.081-1.211l0.231-1.87l-1.476-1.163l-1.787-1.392l1.158-2.006l2.104,0.846
	l1.725,0.695l1.492-1.125c0.715-0.531,1.395-0.93,2.073-1.212l1.756-0.712l0.266-1.874l0.332-2.237h2.303l0.315,2.237l0.266,1.874
	l1.756,0.712c0.713,0.298,1.376,0.681,2.04,1.177l1.509,1.16l1.754-0.712l2.106-0.847l1.162,2.006l-1.773,1.409l-1.476,1.163
	L44.039,33.789L44.039,33.789z M35.004,28.831c-3.408,0-6.168,2.762-6.168,6.169c0,3.408,2.76,6.169,6.168,6.169
	c3.406,0,6.167-2.761,6.167-6.169C41.172,31.593,38.41,28.831,35.004,28.831z M35.003,38.646c-2.005,0-3.644-1.644-3.644-3.646
	s1.639-3.646,3.644-3.646c2.004,0,3.645,1.644,3.645,3.646S37.008,38.646,35.003,38.646z"/>
</svg>
