<?xml version="1.0" encoding="utf-8"?>
<!-- Generator: Adobe Illustrator 16.0.0, SVG Export Plug-In . SVG Version: 6.00 Build 0)  -->
<!DOCTYPE svg PUBLIC "-//W3C//DTD SVG 1.1//EN" "http://www.w3.org/Graphics/SVG/1.1/DTD/svg11.dtd">
<svg version="1.1" id="圖層_1" xmlns="http://www.w3.org/2000/svg" xmlns:xlink="http://www.w3.org/1999/xlink" x="0px" y="0px"
	 width="70px" height="70px" viewBox="0 0 70 70" enable-background="new 0 0 70 70" xml:space="preserve">
<path fill="#4F4599" d="M43.182,36.818C41,36.818,37.6,37.437,35,38.637c-2.6-1.219-5.999-1.818-8.182-1.818
	C22.873,36.818,15,38.782,15,42.728v5h40v-5C55,38.782,47.127,36.818,43.182,36.818z M35.908,45h-18.18v-2.272
	c0-0.982,4.654-3.182,9.09-3.182s9.09,2.199,9.09,3.182V45z M52.272,45H38.637v-2.272c0-0.837-0.364-1.563-0.945-2.22
	c1.599-0.543,3.563-0.962,5.49-0.962c4.436,0,9.091,2.199,9.091,3.182V45z M26.818,35c3.509,0,6.363-2.855,6.363-6.363
	c0-3.509-2.854-6.364-6.363-6.364c-3.508,0-6.364,2.855-6.364,6.364C20.454,32.145,23.311,35,26.818,35z M26.818,25
	c2,0,3.636,1.637,3.636,3.637c0,1.998-1.636,3.636-3.636,3.636c-1.999,0-3.637-1.638-3.637-3.636C23.182,26.637,24.819,25,26.818,25
	z M43.182,35c3.509,0,6.363-2.855,6.363-6.363c0-3.509-2.854-6.364-6.363-6.364s-6.363,2.855-6.363,6.364
	C36.818,32.145,39.673,35,43.182,35z M43.182,25c1.999,0,3.637,1.637,3.637,3.637c0,1.998-1.638,3.636-3.637,3.636
	s-3.637-1.638-3.637-3.636C39.545,26.637,41.183,25,43.182,25z"/>
</svg>
