<?xml version="1.0" encoding="utf-8"?>
<!-- Generator: Adobe Illustrator 16.0.0, SVG Export Plug-In . SVG Version: 6.00 Build 0)  -->
<!DOCTYPE svg PUBLIC "-//W3C//DTD SVG 1.1//EN" "http://www.w3.org/Graphics/SVG/1.1/DTD/svg11.dtd">
<svg version="1.1" id="圖層_1" xmlns="http://www.w3.org/2000/svg" xmlns:xlink="http://www.w3.org/1999/xlink" x="0px" y="0px"
	 width="70px" height="70px" viewBox="0 0 70 70" enable-background="new 0 0 70 70" xml:space="preserve">
<path fill="#4F4599" d="M35.798,19.714c-8.442,0-15.285,6.844-15.285,15.286h-5.096l6.793,6.777L29.003,35h-5.094
	c0-6.573,5.316-11.889,11.889-11.889S47.687,28.427,47.687,35S42.37,46.889,35.798,46.889c-3.278,0-6.249-1.342-8.389-3.499
	l-2.413,2.411c2.768,2.77,6.573,4.485,10.802,4.485c8.443,0,15.285-6.844,15.285-15.286S44.241,19.714,35.798,19.714z
	 M34.099,28.206v8.493l7.219,4.278l1.307-2.173l-5.977-3.55v-7.049H34.099z"/>
</svg>
