<?xml version="1.0" encoding="utf-8"?>
<!-- Generator: Adobe Illustrator 16.0.0, SVG Export Plug-In . SVG Version: 6.00 Build 0)  -->
<!DOCTYPE svg PUBLIC "-//W3C//DTD SVG 1.1//EN" "http://www.w3.org/Graphics/SVG/1.1/DTD/svg11.dtd">
<svg version="1.1" id="圖層_1" xmlns="http://www.w3.org/2000/svg" xmlns:xlink="http://www.w3.org/1999/xlink" x="0px" y="0px"
	 width="70px" height="70px" viewBox="0 0 70 70" enable-background="new 0 0 70 70" xml:space="preserve">
<path fill="#4F4599" d="M44.375,29.531h-1.563v-3.125c0-4.313-3.5-7.813-7.813-7.813s-7.813,3.5-7.813,7.813v3.125h-1.563
	c-1.718,0-3.125,1.406-3.125,3.125v15.625c0,1.718,1.407,3.125,3.125,3.125h18.75c1.718,0,3.125-1.407,3.125-3.125V32.656
	C47.5,30.938,46.093,29.531,44.375,29.531z M30.313,26.406c0-2.594,2.094-4.688,4.688-4.688s4.688,2.094,4.688,4.688v3.125h-9.375
	V26.406z M44.375,48.281h-18.75V32.656h18.75V48.281z M35,43.594c1.718,0,3.125-1.407,3.125-3.125c0-1.719-1.407-3.125-3.125-3.125
	s-3.125,1.406-3.125,3.125C31.875,42.187,33.282,43.594,35,43.594z"/>
</svg>
