<?xml version="1.0" encoding="utf-8"?>
<!-- Generator: Adobe Illustrator 16.0.0, SVG Export Plug-In . SVG Version: 6.00 Build 0)  -->
<!DOCTYPE svg PUBLIC "-//W3C//DTD SVG 1.1//EN" "http://www.w3.org/Graphics/SVG/1.1/DTD/svg11.dtd">
<svg version="1.1" id="圖層_1" xmlns="http://www.w3.org/2000/svg" xmlns:xlink="http://www.w3.org/1999/xlink" x="0px" y="0px"
	 width="120px" height="120px" viewBox="0 0 120 120" enable-background="new 0 0 120 120" xml:space="preserve">
<g>
	<g>
		
			<rect x="28.409" y="68.302" fill="none" stroke="#D94F8F" stroke-width="3.5" stroke-linecap="round" stroke-linejoin="round" stroke-miterlimit="10" width="65.925" height="37.138"/>
		
			<line fill="none" stroke="#D94F8F" stroke-width="3.5" stroke-linecap="round" stroke-linejoin="round" stroke-miterlimit="10" x1="35.292" y1="48.689" x2="28.409" y2="68.302"/>
		
			<line fill="none" stroke="#D94F8F" stroke-width="3.5" stroke-linecap="round" stroke-linejoin="round" stroke-miterlimit="10" x1="87.451" y1="48.689" x2="94.334" y2="68.302"/>
		
			<rect x="51.772" y="74.77" fill="none" stroke="#D94F8F" stroke-width="3.5" stroke-linecap="round" stroke-linejoin="round" stroke-miterlimit="10" width="18.568" height="8.345"/>
		
			<path fill="none" stroke="#D94F8F" stroke-width="3.5" stroke-linecap="round" stroke-linejoin="round" stroke-miterlimit="10" d="
			M74.723,89.373v5.636c0,1.383-1.121,2.504-2.504,2.504h-21.28c-1.382,0-2.504-1.121-2.504-2.504v-5.636"/>
		
			<path fill="none" stroke="#D94F8F" stroke-width="3.5" stroke-linecap="round" stroke-linejoin="round" stroke-miterlimit="10" d="
			M87.451,68.302V45.445c0-1.383-1.121-2.502-2.502-2.502h-26.71v-1.242c0-1.383-1.119-2.504-2.502-2.504h-9.283
			c-1.381,0-2.505,1.121-2.505,2.504v1.242h-6.155c-1.383,0-2.502,1.119-2.502,2.502v22.856"/>
		
			<path fill="none" stroke="#D94F8F" stroke-width="3.5" stroke-linecap="round" stroke-linejoin="round" stroke-miterlimit="10" d="
			M37.064,41.484v-7.051c0-1.29,1.047-2.333,2.333-2.333h24.892v-1.158c0-1.287,1.043-2.332,2.332-2.332h8.652
			c1.289,0,2.332,1.044,2.332,2.332V32.1h5.738c1.289,0,2.332,1.043,2.332,2.333v7.051"/>
		
			<path fill="none" stroke="#D94F8F" stroke-width="3.5" stroke-linecap="round" stroke-linejoin="round" stroke-miterlimit="10" d="
			M82.404,31.999v-8.947c0-1.116-0.904-2.02-2.018-2.02H58.846v-1.002c0-1.114-0.904-2.018-2.02-2.018H49.34
			c-1.113,0-2.02,0.904-2.02,2.018v1.002h-4.964c-1.115,0-2.018,0.904-2.018,2.02v8.947"/>
	</g>
	<g>
		<circle fill="#D94F8F" cx="6.358" cy="67.257" r="1.877"/>
		<circle fill="#D94F8F" cx="6.358" cy="78.084" r="1.877"/>
		<circle fill="#D94F8F" cx="6.358" cy="88.91" r="1.877"/>
		<circle fill="#D94F8F" cx="106.972" cy="16.438" r="1.878"/>
		<circle fill="#D94F8F" cx="106.972" cy="27.265" r="1.878"/>
		<circle fill="#D94F8F" cx="106.972" cy="38.092" r="1.878"/>
		<circle fill="#D94F8F" cx="113.642" cy="22.539" r="1.878"/>
		<circle fill="#D94F8F" cx="113.642" cy="33.367" r="1.878"/>
		<circle fill="#D94F8F" cx="113.642" cy="44.193" r="1.878"/>
		<circle fill="#D94F8F" cx="113.642" cy="55.021" r="1.878"/>
		<circle fill="#D94F8F" cx="6.358" cy="99.737" r="1.877"/>
	</g>
</g>
</svg>
