<?xml version="1.0" encoding="utf-8"?>
<!-- Generator: Adobe Illustrator 16.0.0, SVG Export Plug-In . SVG Version: 6.00 Build 0)  -->
<!DOCTYPE svg PUBLIC "-//W3C//DTD SVG 1.1//EN" "http://www.w3.org/Graphics/SVG/1.1/DTD/svg11.dtd">
<svg version="1.1" id="圖層_1" xmlns="http://www.w3.org/2000/svg" xmlns:xlink="http://www.w3.org/1999/xlink" x="0px" y="0px"
	 width="120px" height="120px" viewBox="0 0 120 120" enable-background="new 0 0 120 120" xml:space="preserve">
<g>
	<g>
		<g>
			<rect x="44.341" y="22.2" fill="#D94F8F" width="30.842" height="3.083"/>
		</g>
	</g>
	<g>
		<g>
			<path fill="#D94F8F" d="M89.834,72.322c0-2.977-2.421-5.398-5.397-5.398h-3.083v-21.59h-3.086v21.59h-3.854
				c-2.977,0-5.398,2.422-5.398,5.398c0,1.512,0.628,2.875,1.633,3.855c-1.005,0.98-1.633,2.346-1.633,3.855
				c0,1.039,0.309,2.004,0.82,2.828c-1.844,0.859-3.134,2.717-3.134,4.883c0,0.83,0.204,1.609,0.542,2.314H55.134
				c0-4.717-2.361-8.889-5.967-11.398c3.485-1.328,5.967-4.705,5.967-8.65c0-0.852-0.69-1.543-1.541-1.543H41.255V53.044h-3.086
				v15.423c-2.549,0-4.627,2.076-4.627,4.627v33.928h3.086V73.094c0-0.852,0.69-1.545,1.541-1.545h13.685
				c-0.685,2.66-3.103,4.629-5.972,4.629h-4.627c-0.854,0-1.543,0.691-1.543,1.543s0.688,1.541,1.543,1.541
				c5.952,0,10.795,4.844,10.795,10.797v1.543c0,0.852,0.689,1.541,1.543,1.541h9.023c-0.337,0.705-0.541,1.482-0.541,2.314
				c0,2.975,2.422,5.396,5.398,5.396v6.168h3.083v-6.168h6.17h0.77c2.978,0,5.398-2.422,5.398-5.396
				c0-0.842-0.209-1.627-0.552-2.336c2.873-0.117,5.179-2.475,5.179-5.377c0-1.039-0.309-2.002-0.82-2.828
				c1.845-0.857,3.133-2.717,3.133-4.883c0-1.51-0.628-2.875-1.63-3.855C89.206,75.197,89.834,73.834,89.834,72.322z M77.496,97.77
				h-0.77h-7.712h-1.541c-1.277,0-2.313-1.037-2.313-2.313c0-1.277,1.036-2.314,2.313-2.314H72.1h5.396
				c1.276,0,2.313,1.037,2.313,2.314C79.81,96.732,78.772,97.77,77.496,97.77z M82.123,90.059h-4.627H72.1
				c-1.274,0-2.313-1.039-2.313-2.314c0-1.273,1.039-2.314,2.313-2.314h2.313h7.71c1.274,0,2.313,1.041,2.313,2.314
				C84.437,89.02,83.397,90.059,82.123,90.059z M84.437,82.348h-2.313h-7.71c-1.275,0-2.313-1.039-2.313-2.314
				c0-1.273,1.038-2.313,2.313-2.313h10.023c1.275,0,2.313,1.039,2.313,2.313C86.749,81.309,85.712,82.348,84.437,82.348z
				 M84.437,74.635H74.413c-1.275,0-2.313-1.037-2.313-2.313s1.038-2.313,2.313-2.313h10.023c1.275,0,2.313,1.037,2.313,2.313
				S85.712,74.635,84.437,74.635z"/>
		</g>
	</g>
	<g>
		<g>
			<path fill="#D94F8F" d="M69.015,31.453H50.509c-2.553,0-4.627,2.075-4.627,4.627v18.507c0,2.55,2.074,4.627,4.627,4.627h18.506
				c2.551,0,4.627-2.077,4.627-4.627V36.08C73.642,33.528,71.565,31.453,69.015,31.453z M70.557,54.587
				c0,0.85-0.69,1.542-1.542,1.542H50.509c-0.854,0-1.543-0.692-1.543-1.542V36.08c0-0.851,0.689-1.543,1.543-1.543h18.506
				c0.852,0,1.542,0.692,1.542,1.543V54.587z"/>
		</g>
	</g>
	<g>
		<g>
			<path fill="#D94F8F" d="M101.88,12.978H83.372c-2.551,0-4.626,2.075-4.626,4.627v18.507c0,2.55,2.075,4.627,4.626,4.627h18.508
				c2.553,0,4.627-2.077,4.627-4.627V17.605C106.507,15.053,104.433,12.978,101.88,12.978z M103.421,36.112
				c0,0.849-0.689,1.542-1.541,1.542H83.372c-0.851,0-1.541-0.692-1.541-1.542V17.605c0-0.851,0.69-1.543,1.541-1.543h18.508
				c0.852,0,1.541,0.692,1.541,1.543V36.112z"/>
		</g>
	</g>
	<g>
		<g>
			<path fill="#D94F8F" d="M36.628,22.2H18.12c-2.552,0-4.627,2.074-4.627,4.626v18.507c0,2.55,2.075,4.626,4.627,4.626h18.508
				c2.551,0,4.627-2.077,4.627-4.626V26.827C41.255,24.274,39.179,22.2,36.628,22.2z M38.169,45.334c0,0.849-0.69,1.542-1.541,1.542
				H18.12c-0.852,0-1.541-0.692-1.541-1.542V26.827c0-0.852,0.689-1.543,1.541-1.543h18.508c0.851,0,1.541,0.692,1.541,1.543V45.334
				z"/>
		</g>
	</g>
	<g>
		<g>
			<rect x="58.22" y="77.721" fill="#D94F8F" width="3.084" height="3.084"/>
		</g>
	</g>
	
		<line fill="none" stroke="#D94F8F" stroke-width="3.5" stroke-linecap="round" stroke-linejoin="round" stroke-miterlimit="10" x1="15.608" y1="30.814" x2="39.28" y2="30.814"/>
	<g>
		<rect x="18.913" y="35.576" fill="#D94F8F" width="3.59" height="3.589"/>
		<rect x="18.913" y="40.739" fill="#D94F8F" width="3.59" height="3.588"/>
	</g>
	<g>
		<rect x="25.272" y="35.576" fill="#D94F8F" width="3.588" height="3.589"/>
		<rect x="25.272" y="40.739" fill="#D94F8F" width="3.588" height="3.588"/>
	</g>
	<g>
		<rect x="31.632" y="35.576" fill="#D94F8F" width="3.588" height="3.589"/>
		<rect x="31.632" y="40.739" fill="#D94F8F" width="3.588" height="3.588"/>
	</g>
	<g>
		<rect x="58.22" y="45.819" fill="#D94F8F" width="3.084" height="7.744"/>
		<polygon fill="#D94F8F" points="53.5,45.914 59.761,38.613 66.022,45.914 		"/>
	</g>
	<g>
		<path fill="#D94F8F" d="M98.272,32.958c0-1.855-0.007-2.074,0-2.409c0.039-0.55-0.516-1.584-1.711-1.947
			c-1.246-0.584-2.875-0.871-3.92-0.871c-1.891,0-5.664,0.941-5.664,2.832v2.396"/>
		<path fill="#D94F8F" d="M92.642,20.76c-1.682,0-3.049,1.368-3.049,3.05c0,1.681,1.367,3.05,3.049,3.05s3.05-1.369,3.05-3.05
			C95.691,22.128,94.323,20.76,92.642,20.76z"/>
	</g>
</g>
</svg>
