<?xml version="1.0" encoding="utf-8"?>
<!-- Generator: Adobe Illustrator 16.0.0, SVG Export Plug-In . SVG Version: 6.00 Build 0)  -->
<!DOCTYPE svg PUBLIC "-//W3C//DTD SVG 1.1//EN" "http://www.w3.org/Graphics/SVG/1.1/DTD/svg11.dtd">
<svg version="1.1" id="圖層_1" xmlns="http://www.w3.org/2000/svg" xmlns:xlink="http://www.w3.org/1999/xlink" x="0px" y="0px"
	 width="120px" height="120px" viewBox="0 0 120 120" enable-background="new 0 0 120 120" xml:space="preserve">
<g>
	<g>
		<g>
			<path fill="#D94F8F" d="M61.094,78.195l-3.852-0.656c-0.402-1.295-0.918-2.546-1.549-3.737l2.271-3.179
				c0.961-1.354,0.814-3.199-0.369-4.37l-3.418-3.419c-0.642-0.642-1.49-0.997-2.397-0.997c-0.711,0-1.388,0.22-1.962,0.631
				l-3.189,2.271c-1.238-0.654-2.532-1.192-3.875-1.595l-0.643-3.808c-0.275-1.639-1.687-2.835-3.35-2.835h-4.83
				c-1.662,0-3.072,1.196-3.35,2.835l-0.665,3.9c-1.285,0.4-2.534,0.93-3.728,1.571l-3.154-2.271
				c-0.574-0.412-1.262-0.631-1.973-0.631c-0.906,0-1.769,0.354-2.398,0.999l-3.43,3.416c-1.169,1.171-1.33,3.019-0.367,4.373
				l2.293,3.222c-0.631,1.205-1.136,2.455-1.524,3.751l-3.809,0.645c-1.64,0.273-2.832,1.685-2.832,3.349v4.827
				c0,1.664,1.192,3.074,2.832,3.353l3.9,0.665c0.402,1.284,0.929,2.534,1.571,3.726l-2.26,3.146
				c-0.963,1.352-0.815,3.199,0.367,4.37l3.418,3.419c0.642,0.642,1.492,0.997,2.398,0.997c0.711,0,1.389-0.22,1.961-0.631
				l3.223-2.295c1.16,0.607,2.376,1.101,3.625,1.492l0.643,3.853c0.275,1.642,1.688,2.835,3.35,2.835h4.84
				c1.666,0,3.075-1.193,3.352-2.835l0.654-3.853c1.294-0.402,2.547-0.921,3.739-1.549l3.177,2.27
				c0.573,0.412,1.262,0.631,1.973,0.631l0,0c0.906,0,1.756-0.354,2.398-0.997l3.416-3.418c1.172-1.172,1.332-3.019,0.368-4.371
				l-2.271-3.19c0.631-1.202,1.158-2.453,1.548-3.737l3.855-0.644c1.641-0.276,2.834-1.685,2.834-3.349v-4.829
				C63.928,79.88,62.736,78.471,61.094,78.195z M60.83,86.373c0,0.149-0.102,0.275-0.252,0.298l-4.816,0.803
				c-0.609,0.104-1.09,0.55-1.238,1.136c-0.438,1.687-1.101,3.303-1.997,4.807c-0.31,0.528-0.288,1.18,0.069,1.687l2.832,3.992
				c0.08,0.113,0.07,0.285-0.034,0.39l-3.419,3.418c-0.079,0.079-0.158,0.091-0.217,0.091c-0.068,0-0.125-0.021-0.171-0.055
				l-3.982-2.835c-0.493-0.357-1.157-0.378-1.687-0.07c-1.502,0.896-3.119,1.563-4.805,1.999c-0.597,0.149-1.045,0.64-1.137,1.236
				l-0.813,4.818c-0.023,0.149-0.15,0.253-0.3,0.253h-4.829c-0.147,0-0.273-0.104-0.296-0.253l-0.803-4.818
				c-0.104-0.605-0.552-1.087-1.137-1.236c-1.641-0.428-3.224-1.078-4.705-1.929c-0.239-0.138-0.516-0.206-0.778-0.206
				c-0.31,0-0.632,0.091-0.896,0.285l-4.016,2.858c-0.055,0.033-0.111,0.056-0.172,0.056c-0.046,0-0.135-0.011-0.216-0.09
				l-3.419-3.419c-0.104-0.104-0.115-0.265-0.035-0.391l2.824-3.957c0.354-0.504,0.378-1.171,0.066-1.698
				c-0.895-1.492-1.582-3.108-2.018-4.795c-0.161-0.586-0.645-1.031-1.24-1.135l-4.852-0.826c-0.148-0.024-0.253-0.148-0.253-0.3
				v-4.827c0-0.149,0.104-0.276,0.253-0.299l4.783-0.803c0.609-0.104,1.102-0.552,1.25-1.148c0.424-1.687,1.078-3.314,1.961-4.815
				c0.311-0.529,0.276-1.183-0.08-1.676l-2.855-4.016c-0.081-0.115-0.068-0.287,0.033-0.391l3.42-3.419
				c0.078-0.079,0.161-0.091,0.218-0.091c0.067,0,0.127,0.023,0.172,0.057l3.956,2.824c0.508,0.354,1.172,0.378,1.699,0.067
				c1.492-0.895,3.107-1.582,4.795-2.019c0.586-0.16,1.033-0.643,1.137-1.239l0.824-4.852c0.023-0.149,0.148-0.254,0.3-0.254h4.827
				c0.15,0,0.277,0.104,0.299,0.254l0.804,4.781c0.104,0.611,0.552,1.102,1.147,1.253c1.732,0.437,3.383,1.112,4.921,2.017
				c0.528,0.313,1.183,0.287,1.686-0.067l3.958-2.845c0.057-0.036,0.113-0.057,0.172-0.057c0.047,0,0.138,0.012,0.219,0.091
				l3.416,3.419c0.104,0.104,0.115,0.264,0.037,0.389l-2.834,3.981c-0.355,0.493-0.381,1.16-0.069,1.687
				c0.896,1.501,1.562,3.12,1.996,4.807c0.147,0.595,0.642,1.042,1.237,1.135l4.82,0.814c0.148,0.022,0.25,0.151,0.25,0.299v4.829
				H60.83z"/>
			<path fill="#D94F8F" d="M36.455,72.102c-6.538,0-11.848,5.313-11.848,11.853c0,6.536,5.31,11.847,11.848,11.847
				c6.539,0,11.852-5.311,11.852-11.847C48.306,77.415,42.994,72.102,36.455,72.102z M36.455,92.703c-4.83,0-8.752-3.92-8.752-8.749
				c0-4.83,3.922-8.755,8.752-8.755s8.753,3.925,8.753,8.755C45.208,88.783,41.285,92.703,36.455,92.703z"/>
		</g>
	</g>
	<g>
		
			<path fill="none" stroke="#D94F8F" stroke-width="3.5" stroke-linecap="round" stroke-linejoin="round" stroke-miterlimit="10" d="
			M20.204,46.583V10.226c0-0.906,0.737-1.641,1.647-1.641h87.508c0.908,0,1.646,0.734,1.646,1.641V82.94
			c0,0.907-0.738,1.642-1.646,1.642H61.547"/>
		
			<line fill="none" stroke="#D94F8F" stroke-width="3.5" stroke-linecap="round" stroke-linejoin="round" stroke-miterlimit="10" x1="20.204" y1="23.673" x2="111.006" y2="23.673"/>
		
			<line fill="none" stroke="#D94F8F" stroke-width="3.5" stroke-linecap="round" stroke-linejoin="round" stroke-miterlimit="10" x1="20.204" y1="54.127" x2="20.204" y2="54.127"/>
		
			<line fill="none" stroke="#D94F8F" stroke-width="3.5" stroke-linecap="round" stroke-linejoin="round" stroke-miterlimit="10" x1="74.021" y1="51.177" x2="74.021" y2="51.177"/>
		
			<line fill="none" stroke="#D94F8F" stroke-width="3.5" stroke-linecap="round" stroke-linejoin="round" stroke-miterlimit="10" x1="86.891" y1="51.177" x2="86.891" y2="51.177"/>
		
			<line fill="none" stroke="#D94F8F" stroke-width="3.5" stroke-linecap="round" stroke-linejoin="round" stroke-miterlimit="10" x1="99.76" y1="51.177" x2="99.76" y2="51.177"/>
		
			<line fill="none" stroke="#D94F8F" stroke-width="3.5" stroke-linecap="round" stroke-linejoin="round" stroke-miterlimit="10" x1="99.76" y1="33.591" x2="99.76" y2="33.591"/>
		
			<line fill="none" stroke="#D94F8F" stroke-width="3.5" stroke-linecap="round" stroke-linejoin="round" stroke-miterlimit="10" x1="30.541" y1="33.591" x2="90.33" y2="33.591"/>
		
			<line fill="none" stroke="#D94F8F" stroke-width="3.5" stroke-linecap="round" stroke-linejoin="round" stroke-miterlimit="10" x1="30.541" y1="42.252" x2="73.707" y2="42.252"/>
		
			<line fill="none" stroke="#D94F8F" stroke-width="3.5" stroke-linecap="round" stroke-linejoin="round" stroke-miterlimit="10" x1="85.721" y1="42.252" x2="100.809" y2="42.252"/>
		
			<line fill="none" stroke="#D94F8F" stroke-width="3.5" stroke-linecap="round" stroke-linejoin="round" stroke-miterlimit="10" x1="85.721" y1="65.791" x2="100.809" y2="65.791"/>
		
			<line fill="none" stroke="#D94F8F" stroke-width="3.5" stroke-linecap="round" stroke-linejoin="round" stroke-miterlimit="10" x1="80.342" y1="74.697" x2="100.809" y2="74.697"/>
		
			<line fill="none" stroke="#D94F8F" stroke-width="3.5" stroke-linecap="round" stroke-linejoin="round" stroke-miterlimit="10" x1="30.541" y1="50.978" x2="61.445" y2="50.978"/>
	</g>
</g>
</svg>
