<?xml version="1.0" encoding="utf-8"?>
<!-- Generator: Adobe Illustrator 16.0.3, SVG Export Plug-In . SVG Version: 6.00 Build 0)  -->
<!DOCTYPE svg PUBLIC "-//W3C//DTD SVG 1.1//EN" "http://www.w3.org/Graphics/SVG/1.1/DTD/svg11.dtd">
<svg version="1.1" id="圖層_1" xmlns="http://www.w3.org/2000/svg" xmlns:xlink="http://www.w3.org/1999/xlink" x="0px" y="0px"
	 width="180px" height="180px" viewBox="0 0 180 180" enable-background="new 0 0 180 180" xml:space="preserve">
<circle fill="#4CB857" cx="90" cy="90" r="90"/>
<path fill="#FFFFFF" d="M66.468,87.769c1.556-11.096,10.371-19.808,21.364-21.363l2.178-0.312V42.449l-2.8,0.207
	c-11.408,0.933-22.194,6.016-30.388,14.105c-8.089,8.191-13.171,18.979-14.104,30.49L42.51,90.05h23.646L66.468,87.769z
	 M48.213,84.866c2.801-19.083,17.632-34.018,36.714-36.714v13.587C73.416,64.228,64.29,73.355,61.801,84.866H48.213z
	 M137.511,91.297c0,11.824-4.46,22.609-11.823,30.803l-13.068-13.172c3.942-4.771,6.432-10.994,6.432-17.631
	c0-14.001-10.372-25.514-23.854-27.381V45.248C118.843,47.219,137.511,67.028,137.511,91.297z M108.99,112.559l13.171,13.17
	c-8.192,7.365-18.979,11.822-30.803,11.822c-24.165,0-44.078-18.668-46.048-42.416h18.667c1.867,13.482,13.483,23.854,27.38,23.854
	C97.996,118.988,104.22,116.498,108.99,112.559z M89.698,86.318c0.727,0.52,1.453,0.934,2.283,1.349
	c1.452,0.623,2.904,1.14,4.252,1.867c4.355,2.384,5.497,7.779,2.488,11.511c-1.14,1.35-2.488,2.281-4.148,2.697
	c-0.726,0.207-1.036,0.623-1.036,1.348c0,0.727,0,1.453,0,2.18c0,0.621-0.312,1.035-1.037,1.035c-0.83,0-1.557,0-2.386,0
	c-0.726,0-1.038-0.414-1.038-1.141c0-0.52,0-1.037,0-1.658c0-1.244,0-1.244-1.244-1.453c-1.452-0.207-2.904-0.52-4.252-1.244
	c-1.037-0.52-1.141-0.83-0.83-1.867c0.207-0.83,0.415-1.658,0.726-2.488c0.311-0.934,0.519-1.037,1.451-0.623
	c1.453,0.727,3.112,1.244,4.771,1.453c1.039,0.102,2.076,0,3.113-0.416c1.866-0.828,2.178-2.904,0.622-4.252
	c-0.52-0.414-1.142-0.725-1.764-1.037c-1.66-0.727-3.319-1.244-4.875-2.178c-2.49-1.452-4.045-3.526-3.838-6.535
	c0.208-3.422,2.178-5.601,5.29-6.74c1.245-0.52,1.348-0.415,1.348-1.765c0-0.414,0-0.932,0-1.347c0-1.037,0.208-1.245,1.246-1.245
	c0.311,0,0.621,0,0.934,0c2.178,0,2.178,0,2.178,2.178c0,1.557,0,1.557,1.555,1.764c1.142,0.207,2.281,0.518,3.319,1.037
	c0.622,0.311,0.829,0.726,0.622,1.348c-0.311,0.934-0.519,1.866-0.829,2.801c-0.312,0.83-0.519,1.037-1.452,0.622
	c-1.66-0.83-3.423-1.142-5.289-1.038c-0.52,0-0.935,0.104-1.453,0.313C88.662,83.518,88.351,85.281,89.698,86.318z"/>
</svg>
