<?xml version="1.0" encoding="utf-8"?>
<!-- Generator: Adobe Illustrator 16.0.3, SVG Export Plug-In . SVG Version: 6.00 Build 0)  -->
<!DOCTYPE svg PUBLIC "-//W3C//DTD SVG 1.1//EN" "http://www.w3.org/Graphics/SVG/1.1/DTD/svg11.dtd">
<svg version="1.1" id="圖層_1" xmlns="http://www.w3.org/2000/svg" xmlns:xlink="http://www.w3.org/1999/xlink" x="0px" y="0px"
	 width="180px" height="180px" viewBox="0 0 180 180" enable-background="new 0 0 180 180" xml:space="preserve">
<circle fill="#4CB857" cx="90" cy="90" r="90"/>
<path fill="#FFFFFF" d="M128.504,81.104c-4.244,0-7.777,3.896-8.54,6.896h-19.327c-0.283-2-1.043-3.34-2.156-4.736l13.59-13.493
	c1.504,1.14,3.31,1.837,5.23,1.837c2.324,0,4.51-0.881,6.152-2.525c3.391-3.392,3.391-8.902-0.002-12.3
	c-1.646-1.642-3.832-2.543-6.158-2.543c-2.322,0-4.506,0.909-6.146,2.55c-1.645,1.645-2.551,3.832-2.551,6.158
	c0,1.627,0.467,3.173,1.295,4.526L95.975,81.258C94.564,80.313,92,79.699,91,79.529V60.348c5-0.51,7.818-4.149,7.818-8.601
	c0-4.799-3.836-8.704-8.635-8.704c-4.8,0-8.687,3.905-8.687,8.704c0,4.029,3.503,7.393,6.503,8.381v19.589
	c-2,0.348-3.069,1.063-4.314,2.053L70.103,68.18c2.577-3.408,2.352-8.277-0.753-11.383c-1.644-1.644-3.828-2.549-6.153-2.549
	c-2.323,0-4.508,0.905-6.152,2.549c-3.393,3.394-3.393,8.916-0.001,12.309c1.644,1.645,3.83,2.55,6.156,2.55
	c1.625,0,3.17-0.466,4.522-1.294l13.783,13.592C80.667,85.201,80.099,86,79.86,88H60.536c-0.761-3-4.295-6.893-8.541-6.893
	c-4.799,0-8.701,3.999-8.701,8.796c0,4.801,3.902,8.942,8.701,8.942c4.244,0,7.778-3.846,8.541-6.846H79.86
	c0.239,1,0.807,2.799,1.645,4.051l-13.782,13.687c-1.353-0.829-2.898-1.34-4.524-1.34c-2.324,0-4.51,0.879-6.152,2.523
	c-1.645,1.645-2.55,3.814-2.55,6.143c0,2.323,0.905,4.504,2.55,6.147c1.644,1.646,3.831,2.547,6.156,2.547
	c2.324,0,4.509-0.905,6.151-2.549c3.104-3.103,3.335-7.972,0.758-11.384l13.574-13.59c1.245,0.99,2.314,1.707,4.314,2.052v19.586
	c-3,0.987-6.471,4.354-6.471,8.383c0,4.798,3.911,8.701,8.711,8.701c2.326,0,4.517-0.906,6.16-2.549
	c1.645-1.644,2.553-3.828,2.552-6.15c0.001-2.325-1.036-4.512-2.681-6.155C94.872,120.703,92,119.877,91,119.65v-19.176
	c1-0.168,3.564-0.781,4.975-1.729l13.848,13.782c-2.04,3.353-1.604,7.783,1.289,10.678c1.646,1.645,3.847,2.548,6.171,2.548
	c2.323,0,4.518-0.903,6.163-2.548c1.644-1.646,2.554-3.832,2.555-6.155c0.002-2.327-0.9-4.514-2.544-6.151
	c-1.646-1.646-3.828-2.555-6.153-2.555c-1.923,0-3.73,0.651-5.234,1.792L98.48,96.74c1.112-1.4,1.871-1.74,2.156-4.74h19.326
	c0.762,3,5.036,6.367,9.036,6.367v0.168c4,0,8.452-3.915,8.456-8.718C137.452,85.021,133.301,81.104,128.504,81.104z
	 M113.961,59.608c0.891-0.89,2.073-1.379,3.332-1.379c1.264,0,2.451,0.489,3.344,1.38c1.842,1.846,1.842,4.842,0,6.684
	c-1.779,1.781-4.895,1.781-6.678-0.002c-0.891-0.893-1.383-2.08-1.383-3.343C112.576,61.688,113.068,60.501,113.961,59.608z
	 M85.527,51.747c0-2.604,2.118-4.723,4.723-4.723c2.604,0,4.723,2.119,4.723,4.723c0,2.603-2.119,4.721-4.723,4.721
	C87.645,56.468,85.527,54.35,85.527,51.747z M59.86,66.291c-1.84-1.84-1.839-4.836,0.001-6.681c0.893-0.89,2.078-1.381,3.338-1.381
	c1.261,0,2.447,0.491,3.34,1.381c1.84,1.843,1.84,4.837,0.001,6.681C64.752,68.076,61.643,68.076,59.86,66.291z M51.995,95h-0.002
	c-2.602,0-4.719-2.257-4.719-4.861c0-2.603,2.119-4.793,4.723-4.793c2.602,0,4.72,2.224,4.722,4.824
	C56.717,92.777,54.599,95,51.995,95z M66.538,120.393c-1.782,1.783-4.89,1.78-6.677-0.004c-0.892-0.892-1.384-2.078-1.384-3.338
	c0-1.262,0.492-2.447,1.384-3.34c0.891-0.893,2.076-1.382,3.337-1.382c1.262,0,2.449,0.491,3.34,1.382
	C68.379,115.555,68.379,118.552,66.538,120.393z M94.973,128.258c0,1.26-0.49,2.443-1.383,3.336s-2.078,1.383-3.341,1.383
	c-2.604,0-4.722-2.119-4.722-4.721c0-2.604,2.118-4.723,4.721-4.724c1.264,0.001,2.449,0.491,3.342,1.384
	S94.973,126.995,94.973,128.258z M117.301,112.327c1.262,0,2.447,0.491,3.342,1.388c0.891,0.887,1.381,2.071,1.381,3.335
	c-0.002,1.261-0.494,2.448-1.385,3.341c-1.789,1.782-4.896,1.782-6.68,0c-1.842-1.841-1.84-4.838,0-6.678
	C114.852,112.818,116.039,112.327,117.301,112.327z M128.5,94.725c-2.602,0-4.719-2.119-4.721-4.723
	c0.002-2.606,2.121-4.726,4.729-4.726c2.599,0,4.714,2.119,4.718,4.722C133.225,92.604,131.104,94.725,128.5,94.725z"/>
</svg>
