<?xml version="1.0" encoding="utf-8"?>
<!-- Generator: Adobe Illustrator 16.0.3, SVG Export Plug-In . SVG Version: 6.00 Build 0)  -->
<!DOCTYPE svg PUBLIC "-//W3C//DTD SVG 1.1//EN" "http://www.w3.org/Graphics/SVG/1.1/DTD/svg11.dtd">
<svg version="1.1" id="圖層_1" xmlns="http://www.w3.org/2000/svg" xmlns:xlink="http://www.w3.org/1999/xlink" x="0px" y="0px"
	 width="16px" height="16px" viewBox="0 0 16 16" enable-background="new 0 0 16 16" xml:space="preserve">
<path fill="#FFFFFF" d="M14.192,6.194V4.37c0-0.051,0-0.154-0.052-0.258c-0.051-0.086-0.104-0.188-0.154-0.223l-3.183-3.2
	c-0.034-0.034-0.103-0.086-0.224-0.138C10.477,0.5,10.356,0.5,10.322,0.5H3.734c-0.361,0-0.688,0.31-0.688,0.688v2.614
	C1.516,3.82,0.26,4.904,0.26,6.211v6.863c0,1.342,1.289,2.426,2.872,2.426H15.07c0.378,0,0.67-0.293,0.67-0.671V6.882
	c0-0.361-0.292-0.688-0.67-0.688H14.192z M4.646,13.074c0,0.585-0.705,1.084-1.514,1.084c-0.825,0-1.53-0.517-1.53-1.084V6.211
	c0-0.585,0.688-1.083,1.53-1.083c0.825,0,1.514,0.498,1.514,1.083V13.074z M4.404,1.842h5.247V4.37c0,0.361,0.292,0.672,0.671,0.672
	h2.512v1.135H5.971c0-0.929-0.637-1.737-1.566-2.133V1.842z M8.224,13.144c-0.275,0-0.533-0.241-0.533-0.551
	c0-0.293,0.258-0.533,0.533-0.533c0.292,0,0.55,0.24,0.55,0.533C8.773,12.902,8.533,13.144,8.224,13.144L8.224,13.144z
	 M8.224,11.372c-0.275,0-0.533-0.241-0.533-0.551c0-0.293,0.258-0.533,0.533-0.533c0.292,0,0.55,0.24,0.55,0.533
	C8.773,11.131,8.533,11.372,8.224,11.372L8.224,11.372z M8.224,9.617c-0.275,0-0.533-0.258-0.533-0.551
	c0-0.292,0.258-0.55,0.533-0.55c0.292,0,0.55,0.258,0.55,0.55C8.773,9.359,8.533,9.617,8.224,9.617L8.224,9.617z M10.305,13.144
	c-0.293,0-0.533-0.241-0.533-0.551c0-0.293,0.225-0.533,0.533-0.533c0.293,0,0.533,0.24,0.533,0.533
	C10.838,12.902,10.615,13.144,10.305,13.144L10.305,13.144z M10.305,11.372c-0.293,0-0.533-0.241-0.533-0.551
	c0-0.293,0.225-0.533,0.533-0.533c0.293,0,0.533,0.24,0.533,0.533C10.838,11.131,10.615,11.372,10.305,11.372L10.305,11.372z
	 M10.305,9.617c-0.293,0-0.533-0.258-0.533-0.551c0-0.292,0.225-0.55,0.533-0.55c0.293,0,0.533,0.258,0.533,0.55
	C10.838,9.359,10.615,9.617,10.305,9.617L10.305,9.617z M12.387,13.144c-0.293,0-0.533-0.241-0.533-0.551
	c0-0.293,0.223-0.533,0.533-0.533c0.292,0,0.55,0.24,0.55,0.533C12.937,12.902,12.695,13.144,12.387,13.144L12.387,13.144z
	 M12.387,11.372c-0.293,0-0.533-0.241-0.533-0.551c0-0.293,0.223-0.533,0.533-0.533c0.292,0,0.55,0.24,0.55,0.533
	C12.937,11.131,12.695,11.372,12.387,11.372L12.387,11.372z M12.387,9.617c-0.293,0-0.533-0.258-0.533-0.551
	c0-0.292,0.223-0.55,0.533-0.55c0.292,0,0.55,0.258,0.55,0.55C12.937,9.359,12.695,9.617,12.387,9.617z"/>
</svg>
