<?xml version="1.0" encoding="utf-8"?>
<!-- Generator: Adobe Illustrator 16.0.3, SVG Export Plug-In . SVG Version: 6.00 Build 0)  -->
<!DOCTYPE svg PUBLIC "-//W3C//DTD SVG 1.1//EN" "http://www.w3.org/Graphics/SVG/1.1/DTD/svg11.dtd">
<svg version="1.1" id="圖層_1" xmlns="http://www.w3.org/2000/svg" xmlns:xlink="http://www.w3.org/1999/xlink" x="0px" y="0px"
	 width="29.926px" height="35px" viewBox="-5 -8 29.926 35" enable-background="new -5 -8 29.926 35" xml:space="preserve">
<g>
	<g>
		<path fill="#FFFFFF" d="M18.74,7.274c0,0,2.706,0.327,4.711-1.743c2.006-2.077,1.383-4.967,1.383-4.967s-2.576,0-4.637,2.124
			C18.146,4.808,18.74,7.274,18.74,7.274z"/>
		<path fill="#FFFFFF" d="M11.41,2.646c0.426,2.851,2.811,4.159,2.811,4.159s1.921-1.655,1.488-4.578
			c-0.432-2.92-2.523-4.427-2.523-4.427S10.986-0.208,11.41,2.646z"/>
		<path fill="#FFFFFF" d="M8.34,9.476c0.051,2.875,2.25,4.49,2.25,4.49s2.117-1.388,2.068-4.341
			c-0.047-2.962-1.926-4.722-1.926-4.722S8.297,6.592,8.34,9.476z"/>
		<path fill="#FFFFFF" d="M3.363,13.4c-0.219,2.874,1.818,4.686,1.818,4.686s2.242-1.179,2.467-4.127
			c0.229-2.95-1.475-4.886-1.475-4.886S3.588,10.529,3.363,13.4z"/>
		<path fill="#FFFFFF" d="M-1.996,16.625c-1.039,2.691,0.393,5.016,0.393,5.016s2.484-0.487,3.553-3.245
			c1.061-2.766-0.01-5.102-0.01-5.102S-0.951,13.938-1.996,16.625z"/>
		<path fill="#FFFFFF" d="M20.72-3.099C21.239-5.935,19.115-8,19.115-8s-2.141,1.43-2.674,4.34
			c-0.532,2.907,1.335,4.627,1.335,4.627S20.207-0.263,20.72-3.099z"/>
		<path fill="#FFFFFF" d="M18.991,8.891c-2.596,1.425-2.749,3.959-2.749,3.959s2.492,1.109,5.021-0.282
			c2.524-1.389,2.778-4.343,2.778-4.343S21.581,7.467,18.991,8.891z"/>
		<path fill="#FFFFFF" d="M15.416,14.497c-2.844,0.813-3.555,3.245-3.555,3.245s2.182,1.633,4.953,0.843
			c2.775-0.795,3.68-3.614,3.68-3.614S18.262,13.688,15.416,14.497z"/>
		<path fill="#FFFFFF" d="M11.346,19.207c-2.955-0.084-4.377,2.017-4.377,2.017s1.586,2.22,4.469,2.308
			c2.881,0.078,4.6-2.342,4.6-2.342S14.305,19.293,11.346,19.207z"/>
		<path fill="#FFFFFF" d="M4.881,22.644c-2.926-0.438-4.58,1.479-4.58,1.479s1.309,2.393,4.162,2.823
			c2.852,0.424,4.844-1.764,4.844-1.764S7.809,23.087,4.881,22.644z"/>
		<path fill="#FFFFFF" d="M18.217,2.358l-1.41,0.049C16.826,2.99,16.994,16.771-5,23.23l0.395,1.352
			C18.498,17.804,18.221,2.509,18.217,2.358z"/>
	</g>
</g>
</svg>
