<?xml version="1.0" encoding="utf-8"?>
<!-- Generator: Adobe Illustrator 16.0.0, SVG Export Plug-In . SVG Version: 6.00 Build 0)  -->
<!DOCTYPE svg PUBLIC "-//W3C//DTD SVG 1.1//EN" "http://www.w3.org/Graphics/SVG/1.1/DTD/svg11.dtd">
<svg version="1.1" id="圖層_1" xmlns="http://www.w3.org/2000/svg" xmlns:xlink="http://www.w3.org/1999/xlink" x="0px" y="0px"
	 width="30px" height="30px" viewBox="0 0 30 30" enable-background="new 0 0 30 30" xml:space="preserve">
<path fill="#007AB9" d="M23.418,22.068v-5.855c0-3.138-1.675-4.598-3.907-4.598c-1.802,0-2.61,0.991-3.06,1.687v-1.446h-3.396
	c0.046,0.958,0,10.213,0,10.213h3.396v-5.703c0-0.305,0.021-0.61,0.111-0.828c0.246-0.61,0.804-1.241,1.741-1.241
	c1.229,0,1.72,0.937,1.72,2.31v5.465h3.395V22.068z M9.479,10.461c1.184,0,1.921-0.785,1.921-1.766
	c-0.021-1.001-0.737-1.764-1.898-1.764s-1.92,0.762-1.92,1.764c0,0.98,0.736,1.766,1.876,1.766H9.479z M15,30
	C6.716,30,0,23.285,0,15C0,6.716,6.716,0,15,0s15,6.716,15,15C30,23.285,23.284,30,15,30z M11.177,22.068V11.855H7.782v10.213
	H11.177z"/>
</svg>
