<?xml version="1.0" encoding="utf-8"?>
<!-- Generator: Adobe Illustrator 16.0.0, SVG Export Plug-In . SVG Version: 6.00 Build 0)  -->
<!DOCTYPE svg PUBLIC "-//W3C//DTD SVG 1.1//EN" "http://www.w3.org/Graphics/SVG/1.1/DTD/svg11.dtd">
<svg version="1.1" id="Layer_1" xmlns="http://www.w3.org/2000/svg" xmlns:xlink="http://www.w3.org/1999/xlink" x="0px" y="0px"
	 width="160px" height="67px" viewBox="0 0 160 67" enable-background="new 0 0 160 67" xml:space="preserve">
<g>
	<path fill="#FFFFFF" d="M45.672,25.563c2.284-0.232,4.544-1.555,5.852-2.647L55.303,6.13
		c-5.287,12.359-18.168,13.256-29.146,17.483c-10.979,4.23-13.095,11.389-13.665,14.395c-0.566,3.009-0.893,7.563-0.893,7.563h3.779
		v6.18h4.84v-9.677h-3.822c-0.082-2.844,1.46-6.343,4.715-7.645c3.256-1.305,7.156,0.077,8.459,2.605
		c0.784,1.519,1.057,3.251,4.637,8.862c3.579,5.611,10.896,5.206,10.896,5.206l2.672-12.008c-1.065,0.213-2.199,0.371-3.73,0.056
		c-2.555-0.535-5.688-3.895-9.35-7.485c-3.672-3.596-11.785-1.86-11.785-1.86c1.055-0.817,5.078-1.92,8.531-1.311
		c4.262,0.752,7.729,5.201,10.979,6.666c2.047,0.923,4.542,0.625,6.113,0.271l2.434-10.208c-1.1,0.644-2.6,1.483-4.564,1.979
		c-3.938,0.998-8.865-1.198-12.928-1.802c-4.188-0.615-11.791,2.361-11.791,2.361c3.207-2.292,6.858-3.524,10.658-3.718
		c2.4-0.127,4.38,0.62,6.59,1.081C41.117,25.582,43.436,25.792,45.672,25.563L45.672,25.563z"/>
	<path fill="#FFFFFF" d="M49.412,53.805c0.572,0,3.662,0,3.662,0l0.813-2.091c0,0-3.351,0.001-3.54,0.01
		c-1.349,0.061-3.822-0.238-4.393,2.655c-0.457,2.298,1.778,2.827,2.827,3.052c1.513,0.331,1.413,1.164,0.63,1.172
		c-1.054,0.013-8.414,0-8.414,0v-1.208h3.443l0.633-2.327h-4.076v-1.18h4.408l0.623-2.137h-7.92v8.316l-2.582-2.438
		c0,0,1.604-0.248,1.604-2.604c0-2.36-1.463-3.273-2.924-3.273c-1.466,0-5.289,0-5.289,0v6.852l-3.332-6.852h-5.367v8.871h2.847
		v-1.367h2.521l0.648,1.367h5.547v-2.508l2.412,2.508c0,0,14.244,0,15.545,0c1.302,0,3.096-0.428,3.291-2.544
		c0.107-1.168-0.514-2.284-3.617-2.809C48.082,55.047,48.418,53.805,49.412,53.805L49.412,53.805z M23.105,56.734v-3.163
		l1.693,3.163H23.105L23.105,56.734z M33.96,55.56c-0.407,0-2.179,0-2.179,0v-1.757c0,0,1.366,0,1.855,0
		c0.486,0,0.557,0.327,0.557,0.736C34.193,54.947,34.228,55.56,33.96,55.56L33.96,55.56z"/>
	<polygon fill="#FFFFFF" points="148.4,60.87 56.234,60.87 56.234,56.413 148.4,56.413 148.4,60.87 	"/>
	<g>
		<g>
			<path fill="#FFFFFF" d="M62.793,38.394c0-0.373-6.131-0.931-6.502-0.652c-0.535,0.4-0.186,1.023,0.747,1.298
				C57.965,39.32,62.793,38.765,62.793,38.394L62.793,38.394z"/>
			<path fill="#FFFFFF" d="M62.887,40.623c0.081-0.282-5.945-0.374-6.41-0.374c-0.463,0-0.277,1.021,1.023,1.302
				C58.799,41.832,62.701,41.271,62.887,40.623L62.887,40.623z"/>
			<path fill="#FFFFFF" d="M62.906,52.443c0.658-0.119,1.855-0.358,1.855-0.541c0-0.36-5.988,0-7.064,0
				c-1.08,0-1.168,0.094-0.54,0.717c0.628,0.632,2.218,1.138,3.175,0.775C61.005,53.147,61.72,52.659,62.906,52.443L62.906,52.443z"
				/>
			<path fill="#FFFFFF" d="M69.186,52.443c-1.016-0.243-1.104-0.651-1.016-0.659c0.539-0.061,7,0,7.303,0
				c0.301,0-0.6,1.375-2.095,1.854C72.313,53.979,70.742,52.809,69.186,52.443L69.186,52.443z"/>
			<path fill="#FFFFFF" d="M74.684,42.923H57.629c-0.469,0-0.844,0.376-0.844,0.845v6.155c0,0.468,0.375,0.841,0.844,0.841h17.055
				c0.469,0,0.846-0.373,0.846-0.841v-6.155C75.529,43.299,75.152,42.923,74.684,42.923z M72.923,49.555c-0.292,0-13.298,0-13.544,0
				c-0.242,0-0.256-1.111,0-1.111c0.259,0,13.249,0,13.544,0C73.215,48.443,73.215,49.555,72.923,49.555z M72.923,47.341
				c-0.292,0-13.298,0-13.544,0c-0.242,0-0.256-1.11,0-1.11c0.259,0,13.249,0,13.544,0C73.215,46.23,73.215,47.341,72.923,47.341z
				 M72.923,45.129c-0.292,0-13.298,0-13.544,0c-0.242,0-0.256-1.109,0-1.109c0.259,0,13.249,0,13.544,0
				C73.215,44.02,73.215,45.129,72.923,45.129z"/>
			<path fill="#FFFFFF" d="M75.523,38.293c0-0.301-0.248-0.547-0.553-0.547H68l-0.014,0.006l-0.33-0.011l0.621-0.368h-2.764
				l-2.607,2.256l1.93-0.026c0,0,0.811-0.586,1.288-0.748c0.124-0.04,1.918-0.198,1.918,0.261c0,0.319,0,0.854,0,0.854
				c-1.114,0.885-5.341,1.674-5.341,1.674v0.277h4.813c0,0,0.552-0.787,1.229-1.114c0.674-0.326,1.096,0.017,1.096,0.017
				l1.132,1.098h4.554v-0.46c-2.339-0.104-5.07-1.585-5.07-1.585s0.014-0.387,0-0.76c-0.003-0.168,0.034-0.242,0.305-0.274h2.488
				c0.223,0.043,0.326,0.145,0.326,0.391c0,0.617-1.115,1.203-1.115,1.203h2.463c0.334,0,0.604-0.273,0.604-0.607v-1.469
				l-0.008-0.034L75.523,38.293L75.523,38.293z"/>
		</g>
		<g>
			<path fill="#FFFFFF" d="M81.695,40.48c0.549,0,0.973-0.668,1.274-1.216c0.272-0.485,0.427-1.03,0-1.03
				c-0.425,0-3.098-0.185-3.098,0.303S81.149,40.48,81.695,40.48L81.695,40.48z"/>
			<path fill="#FFFFFF" d="M82.97,41.211c-0.425,0-2.696-0.063-2.735,0.242c-0.119,0.974,1.4,2.125,1.824,2.125
				c0.428,0,1.094-0.608,1.338-1.151C83.638,41.879,83.396,41.211,82.97,41.211L82.97,41.211z"/>
			<path fill="#FFFFFF" d="M98.098,38.163c0.746-0.277,0.789-0.804,0.789-0.804s-12.176,0-13.563,0
				c-1.053,0-0.264,1.422,0.402,1.422c0.672,0,6.689,0,7.067,0c0.384,0-0.425,1.438-1.458,1.505
				c-1.033,0.058-1.822-0.185-2.309-0.49c-0.485-0.303-1.517-0.062-1.517-0.062l2.306,1.719h-3.732l0,0
				c-0.425,0-0.756,0.345-0.791,0.77l-0.029-0.002v8.567c0.976-0.5,1.436-1.526,1.665-2.244h3.704c0,0,0,1.673,0,2.006
				c0,0.438,1.832,0.302,2.262-0.791c0.059-0.154,0.102-0.609,0.125-1.215h3.256v0.442l-1.883,1.576h2.809h0.275h0.119
				c0.397,0,0.707-0.298,0.777-0.696l0.029,0.008v-0.151v-7.426v-0.002c0-0.463-0.359-0.842-0.805-0.842l0,0h-3.873
				c-0.303-0.12-0.063-0.791,0.243-1.094C94.273,40.059,97.652,38.332,98.098,38.163L98.098,38.163z M90.422,47.25
				c-0.322,0-2.746,0-2.95,0c-0.212,0-0.237-1.684,0-1.684c0.229,0,2.745,0,2.95,0C90.699,45.566,90.66,47.25,90.422,47.25
				L90.422,47.25z M90.422,44.291c-0.322,0-2.746,0-2.95,0c-0.212,0-0.237-1.684,0-1.684c0.229,0,2.745,0,2.95,0
				C90.699,42.607,90.66,44.291,90.422,44.291L90.422,44.291z M96.143,47.25c-0.317,0-2.739,0-2.945,0c-0.207,0-0.234-1.684,0-1.684
				c0.229,0,2.75,0,2.945,0C96.424,45.566,96.383,47.25,96.143,47.25L96.143,47.25z M96.143,42.607c0.281,0,0.24,1.684,0,1.684
				c-0.317,0-2.739,0-2.945,0c-0.207,0-0.234-1.684,0-1.684C93.426,42.607,95.947,42.607,96.143,42.607L96.143,42.607z"/>
			<path fill="#FFFFFF" d="M98.887,51.403c-0.359,0-11.359,0.01-13.124,0.01c-1.76,0-2.001-0.729-2.001-1.271
				c0-0.283,0-0.775,0-0.846V45.27v-0.035l-0.01-0.006c-0.023-0.449-0.387-0.801-0.834-0.801h-0.471l-0.01,0.004h-0.051
				c-0.865,0-2.248,0-2.7,0c-0.603,0,0.49,1.455,0.49,1.455h1.431v3.035h-0.004l-0.197-0.051l-0.063-0.021
				c-0.109-0.038-0.236-0.084-0.375-0.165c-0.441-0.26-0.933-0.678-1.035-0.611c-0.184,0.124,1.398,1.887,1.336,2.489
				c-0.059,0.605-1.035,1.762-1.336,2.311c-0.305,0.545-0.85,0.91-0.305,0.793c0.463-0.107,1.98-1.264,2.345-1.495
				c0.456-0.287,0.905-0.175,1.179,0.093c0.271,0.273,0.609,0.911,1.644,0.911c1.032,0,11.966,0,12.815,0
				c0.416,0,0.848-0.599,1.1-1.101C98.852,51.825,98.922,51.403,98.887,51.403L98.887,51.403z"/>
		</g>
		<g>
			<polygon fill="#FFFFFF" points="145.41,37.374 147.359,37.374 145.01,40.042 147.381,42.504 145.377,42.504 143.174,40.042 
				145.41,37.374 			"/>
			<polygon fill="#FFFFFF" points="137.814,37.374 139.766,37.374 137.416,40.042 139.787,42.504 137.782,42.504 135.577,40.042 
				137.814,37.374 			"/>
			<polygon fill="#FFFFFF" points="141.61,37.374 143.564,37.374 141.215,40.042 143.584,42.504 141.58,42.504 139.377,40.042 
				141.61,37.374 			"/>
			<path fill="#FFFFFF" d="M127.826,37.857c0,0.246,0,15.822,0,15.822s1.438-0.797,1.747-3.086c0.135-0.982,0.201-1.461,0.201-2.252
				c0-0.586,2.687-0.607,2.687,0c0,0.913,0,2.849,0,3.635c0,0.781-2.42,1.703-2.021,1.703c0.22,0,1.551,0,3.101,0
				c0.976,0,0.97-1.216,0.97-1.582c0-0.322,0-11.52,0-14.142c0-0.346-0.299-0.596-0.584-0.596c-1.391,0-5.117,0-5.43,0
				C128.117,37.36,127.826,37.609,127.826,37.857z M132.552,45.347c0,0.466-0.379,0.847-0.848,0.847h-1.05
				c-0.469,0-0.845-0.381-0.845-0.847V44.13c0-0.463,0.376-0.843,0.845-0.843h1.05c0.469,0,0.848,0.38,0.848,0.843V45.347
				L132.552,45.347z M132.552,41.144c0,0.466-0.379,0.844-0.848,0.844h-1.05c-0.469,0-0.845-0.378-0.845-0.844v-1.219
				c0-0.461,0.376-0.839,0.845-0.839h1.05c0.469,0,0.848,0.378,0.848,0.839V41.144L132.552,41.144z"/>
			<path fill="#FFFFFF" d="M146.484,44.234h-4.557l1.646-1.544h-1.439l-3.25,1.544h-2.428c-0.466,0-0.843,0.379-0.843,0.845v7.768
				c0,0.464,0.377,0.844,0.843,0.844h10.027c0.469,0,0.842-0.38,0.842-0.844v-7.768C147.326,44.613,146.953,44.234,146.484,44.234z
				 M145.395,51.196c0,0.467-0.375,0.843-0.843,0.843h-6.163c-0.465,0-0.844-0.376-0.844-0.843v-4.439
				c0-0.466,0.379-0.844,0.844-0.844h6.163c0.468,0,0.843,0.378,0.843,0.844V51.196z"/>
			<path fill="#FFFFFF" d="M142.898,48.927c1.117-1.054,1.721-2.004,1.375-2.267c-0.35-0.263-1.526,0.256-2.813,1.179
				c-1.331-0.881-2.542-1.354-2.876-1.082c-0.326,0.274,0.326,1.201,1.496,2.216c-1.116,1.047-1.721,1.998-1.375,2.267
				c0.346,0.255,1.531-0.261,2.816-1.186c1.334,0.882,2.545,1.355,2.876,1.082C144.731,50.862,144.077,49.938,142.898,48.927z"/>
		</g>
		<g>
			<path fill="#FFFFFF" d="M111,43.035c-0.374,0-3.887,0-4.135,0c-0.244,0-0.211-0.87,0-0.87c0.213,0,4.002,0,4.135,0
				C111.257,42.165,111.294,43.035,111,43.035L111,43.035z"/>
			<path fill="#FFFFFF" d="M111,44.748c-0.374,0-3.887,0-4.135,0c-0.244,0-0.211-0.877,0-0.877c0.213,0,4.002,0,4.135,0
				C111.257,43.871,111.294,44.748,111,44.748L111,44.748z"/>
			<path fill="#FFFFFF" d="M104.332,37.359c3.057,0,15.626,0,18.281,0c0.232,0,0.434,0.223,0.375,0.491
				c-0.1,0.417-0.307,0.942-0.712,0.942c-0.363,0-7.397,0-7.397,0v1.382h7.708c0,0,0.481,0.243,0.481,0.623c0,1.093,0,3.295,0,3.615
				c0,0.422-2.411,0.787-2.411,0.422c0-0.363,0-2.306,0-2.732c0-0.424-0.546-1.033-1.093-1.033s-4.071,0-4.673,0
				c0,0,0,2.854,0,3.222c0,0.363-2.976,1.025-2.976,0.403v-3.625c0,0-4.642,0-5.129,0c-0.727,0-0.787,1.098-0.787,1.887
				c0,0.546,0.061,1.532,0,1.896c-0.07,0.405-2.301,0-2.301-0.424c0-0.476,0-0.044,0-3.717c0-0.136,0.25-0.536,0.668-0.536
				c1.779,0,7.262,0,7.549,0v-1.382c0,0-7,0-7.487,0c-0.312,0-0.524-0.593-0.636-1.023
				C103.729,37.541,104.002,37.359,104.332,37.359z"/>
			<path fill="#FFFFFF" d="M119.977,43.035c-0.375,0-3.893,0-4.136,0c-0.245,0-0.212-0.87,0-0.87c0.214,0,4.001,0,4.136,0
				C120.23,42.165,120.273,43.035,119.977,43.035L119.977,43.035z"/>
			<path fill="#FFFFFF" d="M119.977,44.748c-0.375,0-3.893,0-4.136,0c-0.245,0-0.212-0.877,0-0.877c0.214,0,4.001,0,4.136,0
				C120.23,43.871,120.273,44.748,119.977,44.748L119.977,44.748z"/>
			<path fill="#FFFFFF" d="M121.277,52.126c-1.215,0.007-5.301,0-5.904,0c-0.608,0-0.481,0.123-0.481-0.788v-0.444h7.331
				c0.465,0,0.844-0.395,0.844-0.858v-3.233c0-0.467-0.379-0.849-0.844-0.849h-17.667c-0.466,0-0.845,0.382-0.845,0.849v3.233
				c0,0.464,0.379,0.858,0.845,0.858h7.374c0.029,0.519,0,1.556,0,1.779c0,0.306,0.217,1.003,1.431,1.003
				c1.217,0,9.28,0.004,9.705,0.004C123.345,53.68,122.322,52.124,121.277,52.126z M115.094,46.98c0.266,0,5.596,0,5.733,0
				c0.296,0,0.187,0.974,0,0.974c-0.188,0-5.468,0-5.733,0C114.834,47.954,114.834,46.98,115.094,46.98z M115.094,48.998
				c0.266,0,5.596,0,5.733,0c0.296,0,0.187,0.972,0,0.972c-0.188,0-5.468,0-5.733,0C114.834,49.97,114.834,48.998,115.094,48.998z
				 M111.746,49.97c-0.186,0-5.463,0-5.729,0c-0.267,0-0.267-0.972,0-0.972c0.266,0,5.592,0,5.729,0
				C112.045,48.998,111.938,49.97,111.746,49.97z M111.746,47.954c-0.186,0-5.463,0-5.729,0c-0.267,0-0.267-0.974,0-0.974
				c0.266,0,5.592,0,5.729,0C112.045,46.98,111.938,47.954,111.746,47.954z"/>
		</g>
	</g>
</g>
</svg>
