<?xml version="1.0" encoding="utf-8"?>
<!-- Generator: Adobe Illustrator 16.0.0, SVG Export Plug-In . SVG Version: 6.00 Build 0)  -->
<!DOCTYPE svg PUBLIC "-//W3C//DTD SVG 1.1//EN" "http://www.w3.org/Graphics/SVG/1.1/DTD/svg11.dtd">
<svg version="1.1" id="圖層_1" xmlns="http://www.w3.org/2000/svg" xmlns:xlink="http://www.w3.org/1999/xlink" x="0px" y="0px"
	 width="120px" height="120px" viewBox="0 0 120 120" enable-background="new 0 0 120 120" xml:space="preserve">
<rect fill="#D5562B" width="120" height="120"/>
<g>
	<g>
		<g>
			<path fill="#FFFFFF" d="M49.911,75.456c-0.019,0.019-0.036,0.038-0.054,0.058c-1.087,1.169-0.254,3.07,1.342,3.07h17.6
				c1.598,0,2.43-1.901,1.345-3.07c-0.019-0.02-0.036-0.039-0.054-0.058c-1.634-1.747-7.785-6.938-7.864-7.005
				c-1.281-1.1-3.17-1.1-4.451,0C57.696,68.519,51.544,73.709,49.911,75.456z"/>
			<path fill="#FFFFFF" d="M68.393,58.378c0.512-0.445,1.097-0.938,1.718-1.458c4.574-3.846,10.837-9.11,10.837-14.645v-3.33
				c0-3.555-2.891-6.445-6.445-6.445H45.498c-3.555,0-6.445,2.891-6.445,6.445v3.33c0,5.534,6.263,10.799,10.837,14.645
				c0.62,0.521,1.206,1.014,1.718,1.458c0.486,0.424,0.766,1.015,0.766,1.622s-0.279,1.198-0.766,1.622
				c-0.512,0.445-1.098,0.938-1.718,1.458c-4.574,3.846-10.837,9.11-10.837,14.645v3.33c0,3.554,2.891,6.445,6.445,6.445h29.004
				c3.555,0,6.445-2.892,6.445-6.445c0-1.187-0.962-2.148-2.148-2.148s-2.148,0.962-2.148,2.148c0,1.185-0.964,2.148-2.148,2.148
				H45.498c-1.186,0-2.148-0.964-2.148-2.148v-3.33c0-3.533,5.825-8.43,9.306-11.355c0.634-0.533,1.233-1.036,1.772-1.506
				c1.425-1.24,2.242-3.012,2.242-4.863s-0.817-3.623-2.242-4.863c-0.539-0.469-1.139-0.974-1.772-1.506
				c-3.48-2.926-9.306-7.822-9.306-11.355v-3.33c0-1.185,0.963-2.148,2.148-2.148h29.004c1.185,0,2.148,0.964,2.148,2.148v3.33
				c0,3.533-5.825,8.43-9.306,11.355c-0.634,0.532-1.233,1.036-1.772,1.506c-1.425,1.24-2.242,3.012-2.242,4.863
				s0.817,3.623,2.242,4.863c0.563,0.489,1.188,1.014,1.853,1.569c2.09,1.749,4.458,3.732,6.329,5.842
				c0.787,0.888,2.145,0.97,3.033,0.183c0.888-0.786,0.969-2.145,0.182-3.033c-2.081-2.349-4.69-4.532-6.787-6.287
				c-0.646-0.541-1.258-1.053-1.789-1.516c-0.486-0.423-0.766-1.014-0.766-1.621S67.906,58.802,68.393,58.378z"/>
			<path fill="#FFFFFF" d="M62.321,52.398c0.038-0.034,1.538-1.322,3.245-2.833c1.339-1.185,0.516-3.423-1.258-3.423h-8.402
				c-1.773,0-2.597,2.238-1.259,3.423c1.708,1.511,3.207,2.799,3.246,2.833C59.168,53.511,61.047,53.511,62.321,52.398z"/>
		</g>
	</g>
</g>
</svg>
