<?xml version="1.0" encoding="utf-8"?>
<!-- Generator: Adobe Illustrator 16.0.0, SVG Export Plug-In . SVG Version: 6.00 Build 0)  -->
<!DOCTYPE svg PUBLIC "-//W3C//DTD SVG 1.1//EN" "http://www.w3.org/Graphics/SVG/1.1/DTD/svg11.dtd">
<svg version="1.1" id="圖層_1" xmlns="http://www.w3.org/2000/svg" xmlns:xlink="http://www.w3.org/1999/xlink" x="0px" y="0px"
	 width="120px" height="120px" viewBox="0 0 120 120" enable-background="new 0 0 120 120" xml:space="preserve">
<rect fill="#D5562B" width="120" height="120"/>
<g>
	<path fill="#FFFFFF" d="M69.061,55.716c-0.127-0.385-3.242-9.396-12.636-9.396c-9.396,0-12.512,9.012-12.64,9.396
		c-0.173,0.521-0.173,1.086,0,1.607c0.128,0.409,3.243,9.422,12.64,9.422c9.394,0,12.509-9.013,12.636-9.396
		C69.239,56.819,69.239,56.245,69.061,55.716z M56.424,61.64c-3.269-0.107-6.176-2.1-7.455-5.108
		c1.279-3.007,4.187-4.999,7.455-5.106c3.265,0.107,6.174,2.1,7.455,5.106C62.599,59.54,59.689,61.532,56.424,61.64z"/>
	<circle fill="#FFFFFF" cx="56.424" cy="56.532" r="2.553"/>
	<path fill="#FFFFFF" d="M85.9,82.112L74.729,70.255c7.415-9.877,5.721-23.918-3.983-31.701c-9.902-7.939-24.361-6.352-32.302,3.549
		c-7.94,9.899-6.351,24.362,3.549,32.303c8.4,6.736,20.353,6.736,28.753,0l10.846,10.843l0.058-0.057l0.462,0.491
		c0.513,0.543,1.204,0.817,1.895,0.817c0.642,0,1.283-0.235,1.786-0.709C86.838,84.806,86.887,83.158,85.9,82.112z M56.424,74.405
		c-9.872,0-17.873-8.004-17.873-17.873c0-9.87,8.001-17.873,17.873-17.873c9.869,0,17.871,8.003,17.871,17.872
		C74.295,66.401,66.293,74.405,56.424,74.405z"/>
</g>
</svg>
