<?xml version="1.0" encoding="utf-8"?>
<!-- Generator: Adobe Illustrator 16.0.0, SVG Export Plug-In . SVG Version: 6.00 Build 0)  -->
<!DOCTYPE svg PUBLIC "-//W3C//DTD SVG 1.1//EN" "http://www.w3.org/Graphics/SVG/1.1/DTD/svg11.dtd">
<svg version="1.1" id="圖層_1" xmlns="http://www.w3.org/2000/svg" xmlns:xlink="http://www.w3.org/1999/xlink" x="0px" y="0px"
	 width="120px" height="120px" viewBox="0 0 120 120" enable-background="new 0 0 120 120" xml:space="preserve">
<rect fill="#D5562B" width="120" height="120"/>
<g>
	<g>
		<g>
			<g>
				<g>
					<path fill="#FFFFFF" d="M67.542,53.021c0-1.188-0.963-2.15-2.15-2.15H43.24c-1.188,0-2.15,0.963-2.15,2.15
						s0.962,2.151,2.15,2.151h22.151C66.579,55.171,67.542,54.208,67.542,53.021z"/>
				</g>
				<g>
					<path fill="#FFFFFF" d="M43.24,59.473c-1.188,0-2.15,0.963-2.15,2.15s0.962,2.15,2.15,2.15h13.453
						c1.188,0,2.151-0.963,2.151-2.15s-0.963-2.15-2.151-2.15H43.24z"/>
				</g>
				<g>
					<path fill="#FFFFFF" d="M48.294,80.118h-7.191c-2.373,0-4.302-1.931-4.302-4.301V37.967c0-2.372,1.929-4.302,4.302-4.302
						h26.439c2.372,0,4.301,1.93,4.301,4.302v13.226c0,1.188,0.962,2.15,2.15,2.15s2.15-0.963,2.15-2.15V37.967
						c0-4.744-3.858-8.603-8.602-8.603H41.103c-4.744,0-8.603,3.859-8.603,8.603v37.851c0,4.742,3.858,8.602,8.603,8.602h7.191
						c1.188,0,2.15-0.963,2.15-2.151C50.444,81.08,49.481,80.118,48.294,80.118z"/>
				</g>
				<g>
					<path fill="#FFFFFF" d="M65.392,42.268H43.24c-1.188,0-2.15,0.963-2.15,2.15c0,1.188,0.962,2.151,2.15,2.151h22.151
						c1.188,0,2.15-0.963,2.15-2.151C67.542,43.23,66.579,42.268,65.392,42.268z"/>
				</g>
			</g>
		</g>
	</g>
	<g>
		<path fill="#FFFFFF" d="M69.471,81.087c-0.036,0-0.072-0.001-0.108-0.003c-0.549-0.033-1.053-0.316-1.366-0.77l-3.488-5.033
			c-0.564-0.813-0.361-1.932,0.453-2.496c0.813-0.565,1.933-0.362,2.496,0.453l2.187,3.155l6.411-7.226
			c0.658-0.74,1.79-0.81,2.533-0.15c0.741,0.658,0.81,1.791,0.152,2.533l-7.928,8.933C70.471,80.869,69.982,81.087,69.471,81.087z"
			/>
	</g>
	<g>
		<path fill="#FFFFFF" d="M71.689,90.636c-8.717,0-15.809-7.092-15.809-15.81c0-8.717,7.092-15.809,15.809-15.809
			c8.719,0,15.811,7.092,15.811,15.809C87.5,83.544,80.408,90.636,71.689,90.636z M71.689,63.502
			c-6.243,0-11.323,5.08-11.323,11.324c0,6.243,5.08,11.324,11.323,11.324c6.245,0,11.325-5.081,11.325-11.324
			C83.015,68.582,77.935,63.502,71.689,63.502z"/>
	</g>
</g>
</svg>
