<svg xmlns="http://www.w3.org/2000/svg" width="142" height="58.333" viewBox="0 0 142 58.333"><path fill="#1E429A" d="M35.353 20.237c2.328-.232 4.653-1.628 6.047-2.79L45.356 0c-5.467 12.91-18.84 13.84-30.238 18.144C3.72 22.564 1.512 30.006.93 33.147c-.583 3.14-.93 7.79-.93 7.79h3.836v6.515h5.118v-10.12h-4.07c0-2.906 1.628-6.513 5-7.907 3.372-1.396 7.328.115 8.723 2.674.814 1.63 1.164 3.373 4.767 9.188 3.723 5.813 11.4 5.464 11.4 5.464l2.79-12.443c-1.165.232-2.325.348-3.953 0-2.673-.58-5.933-4.07-9.652-7.793-3.84-3.72-12.212-1.86-12.212-1.86 1.047-.93 5.233-1.976 8.84-1.396 4.42.816 8.022 5.352 11.394 6.98 2.096.93 4.654.58 6.282.23L40.82 19.89c-1.164.697-2.674 1.51-4.766 2.093-4.074.932-9.19-1.278-13.377-1.976-4.303-.582-12.208 2.56-12.208 2.56 3.254-2.444 7.09-3.724 11.047-3.956 2.44-.117 4.533.697 6.86 1.163 2.21.467 4.65.698 6.976.467M39.192 49.542h3.835l.815-2.208h-3.604c-1.514.118-4.073-.233-4.653 2.792-.463 2.443 1.86 2.906 3.025 3.14 1.512.348 1.395 1.278.58 1.278h-8.72v-1.277h3.606l.58-2.443H30.47V49.66h4.537l.697-2.208h-8.256v8.607L24.77 53.5s1.747-.233 1.747-2.676c0-2.44-1.628-3.372-3.143-3.372h-1.16v2.09h.58c.58 0 .58.35.58.7 0 .466.118 1.164-.23 1.164h-.93v3.954l1.16 1.28H39.54c1.397 0 3.258-.467 3.375-2.677.112-1.162-.467-2.324-3.723-2.906-1.394-.233-1.047-1.515 0-1.515m-16.98-2.09H17.91v7.092l-3.372-7.092h-1.745v3.49l.814 1.627h-.814v2.67h1.745l.58 1.398h5.815v-2.676l1.28 1.397v-3.955h-1.28v-1.863h1.28v-2.09zm-9.42 0H8.955v9.187h2.908V55.24h.93V52.57h-.93v-3.258l.93 1.63v-3.49z"/><path fill="#F79523" d="M46.287 53.224H142v4.65H46.287z"/><path fill="#1E429A" d="M53.15 33.496c0-.35-6.4-.93-6.75-.582-.58.347-.23 1.046.7 1.277.928.352 6.05-.23 6.05-.694M53.15 35.82c.113-.232-6.166-.348-6.633-.348-.463 0-.23 1.046 1.048 1.395 1.394.234 5.467-.348 5.584-1.048M53.263 48.15c.583-.118 1.86-.35 1.86-.58 0-.352-6.16 0-7.325 0s-1.164.112-.58.694c.697.698 2.324 1.28 3.372.815.698-.233 1.395-.698 2.673-.93M59.777 48.15c-1.048-.234-1.164-.698-1.048-.698.463-.118 7.21 0 7.558 0 .233 0-.698 1.395-2.208 1.86-1.047.465-2.675-.814-4.303-1.163M65.475 38.263h-8.84v1.164h6.98c.35 0 .35 1.164 0 1.164h-6.98v1.047h6.98c.35 0 .35 1.162 0 1.162h-6.98v1.163h6.98c.35 0 .35 1.162 0 1.162h-6.98v1.28h8.84c.466 0 .813-.465.813-.932v-6.395c0-.467-.347-.815-.813-.815m-8.84 0H47.68c-.465 0-.812.35-.812.815v6.395c0 .466.347.93.813.93h8.955v-1.278h-7.093c-.233 0-.233-1.162 0-1.162h7.093V42.8h-7.093c-.233 0-.233-1.163 0-1.163h7.093V40.59h-7.093c-.233 0-.233-1.164 0-1.164h7.093v-1.163z"/><path fill="#1E429A" d="M66.288 33.496c0-.35-.23-.582-.58-.582H58.15l.697-.466h-2.91l-2.674 2.325h1.977s.815-.582 1.28-.697c.118-.116 1.976-.233 1.976.233v.812c-1.044.93-5.464 1.746-5.464 1.746v.35h5s.582-.816 1.278-1.165c.7-.35 1.047 0 1.047 0l1.28 1.164h4.65v-.467c-2.44-.116-5.233-1.628-5.233-1.628v-.813c0-.234 0-.234.35-.35h2.56c.233.116.35.23.35.466 0 .58-1.165 1.277-1.165 1.277h2.558c.35 0 .58-.347.58-.697v-1.51zM72.687 35.704c.58 0 1.046-.697 1.393-1.277.233-.466.35-1.048 0-1.048-.462 0-3.254-.232-3.254.35 0 .46 1.277 1.974 1.86 1.974M74.08 36.52c-.462 0-2.79-.12-2.906.23-.116.93 1.513 2.212 1.975 2.212.35 0 1.047-.7 1.28-1.28.347-.464 0-1.163-.35-1.163M89.782 33.26c.697-.23.815-.812.815-.812h-4.42v2.674c1.163-.696 3.254-1.744 3.605-1.86M86.176 44.08h1.628v.462l-1.628 1.397v.23H89.203c.464 0 .813-.35.813-.698V37.564c0-.464-.35-.815-.813-.815h-3.025v1.163h1.51c.352 0 .234 1.746 0 1.746h-1.51v1.276h1.51c.352 0 .234 1.744 0 1.744h-1.51v1.4zm0-11.632h-5.93v1.512h3.95c.467 0-.346 1.513-1.51 1.513-1.048.116-1.86-.116-2.326-.466h-.116v1.046l.93.697h-.93v1.164h1.51c.352 0 .234 1.746 0 1.746h-1.51v1.277h1.51c.352 0 .234 1.744 0 1.744h-1.51v1.4h1.744v2.09c0 .47 1.86.352 2.326-.812.115-.233.115-.697.115-1.277h1.745v-1.398h-1.512c-.233 0-.233-1.744 0-1.744h1.512V39.66h-1.512c-.233 0-.233-1.746 0-1.746h1.512V36.75h-.93c-.347-.116-.118-.813.233-1.162.116-.116.347-.23.697-.466v-2.674zm0 13.49v.232h-.233l.233-.23zm-5.93-13.49h-3.723c-1.162 0-.35 1.512.35 1.512h3.373v-1.512zm0 2.558c-.464-.347-1.512-.116-1.512-.116l1.512 1.162v-1.046zm0 1.744h-3.023c-.35 0-.7.35-.817.815v8.838c1.048-.464 1.514-1.626 1.744-2.324h2.096v-1.4h-1.512c-.233 0-.233-1.744 0-1.744h1.512V39.66h-1.512c-.233 0-.233-1.746 0-1.746h1.512V36.75z"/><path fill="#1E429A" d="M90.597 47.1H76.99c-1.862 0-2.095-.812-2.095-1.392V40.59c-.118-.466-.464-.815-.93-.815H70.59c-.582 0 .58 1.512.58 1.512h1.515v3.14h-.352c-.118-.118-.233-.118-.347-.234-.468-.23-1.05-.697-1.05-.582-.232.12 1.396 1.98 1.278 2.56 0 .582-1.046 1.86-1.277 2.44-.35.585-.93.932-.35.816.468-.116 2.097-1.395 2.443-1.628.466-.23.93-.118 1.164.118.35.35.697.93 1.744.93h13.257c.468 0 .93-.58 1.164-1.165.12-.23.237-.58.237-.58M138.857 32.448h1.98l-2.444 2.79 2.56 2.56h-2.096l-2.325-2.56M130.952 32.448h2.09l-2.44 2.79 2.44 2.56h-2.09l-2.328-2.56"/><path fill="#1E429A" d="M134.903 32.448h1.98l-2.328 2.79L137 37.8h-2.097l-2.323-2.56M124.09 43.38c.697 0 1.277.23 1.277.466v3.834c0 .35-.697.817-1.277 1.166v.58h2.44c1.05 0 1.05-1.278 1.05-1.628V33.145c0-.464-.352-.697-.702-.697h-2.788v1.86h.58c.466 0 .813.35.813.814v1.28c0 .465-.347.814-.813.814h-.58v1.395h.58c.466 0 .813.35.813.932v1.164c0 .582-.347.93-.813.93h-.58v1.744zm-3.49-10.35v16.396s1.51-.815 1.862-3.256c.115-.93.115-1.51.115-2.324 0-.235.815-.466 1.513-.466v-1.744h-.584c-.464 0-.815-.35-.815-.93V39.54c0-.58.352-.93.816-.93h.584v-1.395h-.584c-.464 0-.815-.35-.815-.815v-1.28c0-.463.352-.812.816-.812h.584v-1.86h-2.792c-.35 0-.697.233-.697.58m3.49 15.82v.58h-.815c-.115 0 .23-.233.815-.58M140.02 39.66h-4.766L137 38.03h-1.515l-.697.348v3.025h3.143c.463 0 .928.347.928.815v4.65c0 .465-.464.814-.927.814h-3.142v1.746h5.233c.467 0 .816-.35.816-.93V40.47c0-.464-.35-.812-.815-.812m-5.232-1.282l-2.677 1.28h-2.556c-.464 0-.815.35-.815.814v8.025c0 .582.35.93.814.93h5.233v-1.745h-3.256c-.463 0-.812-.35-.812-.815v-4.65c0-.467.35-.814.813-.814h3.257v-3.025z"/><path fill="#1E429A" d="M136.298 44.426c1.164-1.046 1.746-1.977 1.397-2.325-.35-.232-1.626.234-2.907 1.28-1.395-.93-2.677-1.395-3.023-1.162-.35.23.347 1.278 1.513 2.324-1.166 1.048-1.746 2.097-1.4 2.328.352.23 1.633-.23 2.91-1.28 1.394.932 2.675 1.512 3.026 1.163.346-.232-.352-1.28-1.516-2.327M103.156 38.378H98.85c-.228 0-.228-.93 0-.93h4.306c.233.002.233.93 0 .93M103.156 40.124H98.85c-.228 0-.228-.93 0-.93h4.306c.233 0 .233.93 0 .93"/><path fill="#1E429A" d="M96.177 32.448h18.956c.35 0 .468.233.468.582-.116.35-.35.93-.7.93h-7.792v1.398h8.025s.582.23.582.696v3.723c0 .464-2.56.815-2.56.464v-2.79c0-.465-.58-1.16-1.16-1.16h-4.77v3.37c0 .35-3.14 1.047-3.14.465V36.29h-5.35c-.697 0-.815 1.16-.815 1.974 0 .582.118 1.628 0 1.977 0 .467-2.326 0-2.326-.463V35.94c0-.12.235-.58.697-.58h7.795v-1.4H96.29c-.346 0-.46-.582-.58-1.046-.115-.233.12-.466.467-.466"/><path fill="#1E429A" d="M112.458 38.378h-4.302c-.23 0-.23-.93 0-.93h4.302c.233.002.35.93 0 .93M112.458 40.124h-4.302c-.23 0-.23-.93 0-.93h4.302c.233 0 .35.93 0 .93M113.855 47.798h-3.49v1.628h5.35c.233 0-.816-1.628-1.86-1.628m-3.49-1.277h4.42c.465 0 .93-.465.93-.93v-3.372c0-.468-.464-.815-.93-.815h-4.42v1.046h3.024c.232 0 .117 1.045 0 1.045h-3.024v1.046h3.023c.232 0 .117 1.05 0 1.05h-3.024v.93zm0 1.278h-2.673c-.698 0-.466.118-.466-.813v-.464h3.14v-.93h-3.024c-.23 0-.23-1.048 0-1.048h3.025v-1.046h-3.025c-.23 0-.23-1.046 0-1.046h3.025v-1.046h-9.42v1.046h3.023c.233 0 .117 1.046 0 1.046h-3.023v1.046h3.023c.233 0 .117 1.048 0 1.048h-3.023v.93h3.14v1.86c0 .35.234 1.046 1.512 1.046h4.768v-1.628zm-9.42-6.395H96.41c-.464 0-.815.347-.815.815v3.372c0 .464.35.93.815.93h4.536v-.93H97.92c-.23 0-.23-1.048 0-1.048h3.025v-1.046H97.92c-.23 0-.23-1.046 0-1.046h3.025v-1.047z"/></svg>