<svg version="1.1" xmlns="http://www.w3.org/2000/svg" x="0" y="0" width="50" height="50" xml:space="preserve"><style>.st20{fill:#3871ff}</style><path class="st20" d="M45.9 23.6c-2-.6-4.6-1-7.4-1V12c0-.2-.1-.3-.1-.5-.3-1.2-1.6-2.2-4-2.9-2.2-.7-5.2-1-8.2-1-3.1 0-6 .4-8.2 1-1.8.6-4 1.6-4 3.4v.3l.1 4.5c-6.5-1.2-12.7 3-13.9 9.5-.1.7-.2 1.5-.2 2.2 0 6.6 5.3 11.9 11.9 11.9 2.7 0 5.4-.9 7.5-2.7 1.9.4 4.1.7 6.4.7.5 2.8 6.5 4 12.1 4 3.1 0 6-.4 8.2-1.1 1.8-.6 4-1.6 4-3.4v-11-.2c-.2-1.2-1.5-2.3-4.2-3.1zm-9.4-6.1c0 .1-.5.8-2.6 1.5-2 .6-4.8 1-7.7 1-2.5 0-4.9-.3-6.8-.7h-.1c-.9-.7-2-1.3-3.1-1.8l-.1-2.8c.7.3 1.4.6 2.2.8 2.2.6 5 1 7.9 1 3.1 0 6-.4 8.2-1 .7-.2 1.5-.5 2.2-.9v2.6c-.1 0-.1.1-.1.3zm-17.9-7c2-.6 4.7-1 7.6-1 2.8 0 5.6.3 7.7 1 2.2.7 2.6 1.3 2.6 1.5 0 .1-.5.8-2.7 1.5-2 .6-4.8 1-7.7 1-2.8 0-5.4-.3-7.3-.9-2.1-.6-2.7-1.3-2.8-1.5 0-.3.5-1 2.6-1.6zm0 25.4c-4.1 3.7-10.3 3.4-14-.7-3.7-4.1-3.4-10.3.7-14 1.8-1.7 4.2-2.6 6.7-2.6 1 0 2 .1 2.9.4 3.5 1.1 6.1 3.9 6.8 7.5.1.7.2 1.3.2 2 0 2.8-1.2 5.5-3.3 7.4zm2.5.2c.8-1 1.5-2.1 1.9-3.3.8.1 1.7.1 2.6.1v.2l.1 3.4c-1.5 0-3-.2-4.6-.4zm2.7-8.8c.6 0 1.2.1 1.8.1l.1 3.5c-.7 0-1.4 0-2-.1.2-.8.2-1.5.2-2.3-.1-.4-.1-.8-.1-1.2zm2.4-1.9c-1.1 0-2 0-2.8-.1-.4-1.3-1-2.6-1.8-3.7 1.5.2 3 .3 4.5.3 3.1 0 6-.4 8.3-1 .7-.2 1.5-.5 2.2-.9v2.6c-4.3.1-8.7 1-10.4 2.8zm1.4 1.6c.1-.3.8-1 2.9-1.5 1.9-.5 4.5-.9 7.1-.9h.2c2.8 0 5.6.3 7.7.9 2.1.6 2.6 1.3 2.6 1.4 0 .1-.5.8-2.7 1.5-2 .6-4.7.9-7.6.9-2.8 0-5.4-.3-7.3-.9-2.3-.5-2.9-1.2-2.9-1.4zM48 38c0 .1-.5.8-2.6 1.5-2 .6-4.7 1-7.6 1-2.9 0-5.6-.3-7.6-.9-2.1-.6-2.5-1.3-2.5-1.5l-.1-2.9c.8.4 1.6.7 2.5.9 2.1.6 4.8.9 7.5.9 3.1 0 6-.4 8.2-1 .7-.2 1.4-.5 2.1-.9V38zm0-5.8c0 .1-.1.2-.1.3 0 .1-.5.8-2.6 1.5-2 .6-4.8 1-7.6 1-5.5 0-9.2-1.2-10-2.2V29.7c.7.3 1.4.6 2.2.8 2.2.6 5 1 7.9 1 3 0 5.9-.4 8.1-1 .8-.2 1.5-.5 2.2-.9v2.6z"/><path class="st20" d="M11.5 32.5v-2.9c-.9-.3-1.6-.7-2-1.2-.4-.5-.6-1.2-.6-1.9 0-.8.2-1.4.7-1.9.5-.5 1.1-.8 1.9-.9V23h1v.7c.7.1 1.3.3 1.8.8.4.4.7 1 .8 1.7l-1.8.2c-.1-.5-.4-.9-.8-1.1V28c1.1.3 1.9.7 2.3 1.2.4.5.6 1.1.6 1.9 0 .8-.3 1.6-.8 2.1-.5.6-1.2.9-2.1 1.1v1.3h-1v-1.3c-.8-.1-1.5-.4-2-.9s-.8-1.2-1-2.1l1.8-.2c.1.4.2.7.4 1s.6.3.8.4zm0-7.3c-.3.1-.5.3-.7.5s-.2.5-.2.7c0 .2.1.5.2.7.1.2.4.4.7.5v-2.4zm1 7.4c.3-.1.6-.2.9-.5.2-.3.3-.6.3-.9 0-.3-.1-.6-.3-.8-.2-.2-.5-.4-.9-.5v2.7z"/></svg>