<svg version="1.1" xmlns="http://www.w3.org/2000/svg" x="0" y="0" width="50" height="50" xml:space="preserve"><style>.st20{fill:#3871ff}</style><path class="st20" d="M39.8 25c0-8.1-6.6-14.8-14.8-14.8S10.2 16.9 10.2 25 16.9 39.8 25 39.8 39.8 33.1 39.8 25zM25 12.1c7.1 0 12.9 5.8 12.9 12.9 0 3.4-1.4 6.7-3.7 9.1v-3.5c0-2.7-2.2-4.9-4.9-4.9-.3 0-.6.1-.8.4-.8 1.1-2.1 1.8-3.5 1.8s-2.7-.7-3.5-1.8c-.2-.2-.5-.4-.8-.4-2.7 0-4.9 2.2-4.9 4.9v3.5c-2.4-2.4-3.7-5.7-3.8-9.1.1-7.1 5.9-12.9 13-12.9zm-7.2 18.5c0-1.5 1.1-2.8 2.6-3 1.2 1.3 2.9 2.1 4.7 2.1 1.3 0 2.6-.4 3.7-1.2.4-.3.7-.6 1-.9 1.5.2 2.6 1.5 2.6 3v5.1c-2.2 1.5-4.7 2.2-7.2 2.2s-5-.8-7.2-2.2v-5.1z"/><path class="st20" d="M47.3 29.2l-2.3-2c.2-1.8.1-3.6-.1-5.4l2.2-2.1c.3-.3.4-.7.2-1.1l-2.6-5.9c-.2-.4-.5-.6-.9-.6l-3.1.2c-1.1-1.4-2.4-2.7-3.9-3.7l.1-3.1c0-.4-.2-.8-.6-.9l-6-2.3c-.4-.1-.8 0-1.1.3l-2 2.3c-1.8-.2-3.6-.1-5.4.1l-2.1-2.2c-.3-.3-.7-.4-1.1-.2l-5.9 2.6c-.4.2-.6.5-.6.9l.2 3.1c-1.4 1.1-2.7 2.4-3.7 3.9L5.5 13c-.4 0-.7.2-.9.6l-2.3 6c-.1.4 0 .8.3 1.1l2.3 2c-.2 1.8-.1 3.6.1 5.4l-2.2 2.1c-.3.3-.4.7-.2 1.1l2.6 5.9c.2.3.5.6.9.6h.1l3.1-.2c1.1 1.4 2.4 2.7 3.9 3.7l-.1 3.1c0 .4.2.8.6.9l6 2.3c.1 0 .2.1.3.1.3 0 .5-.1.7-.3l2-2.3c1.8.2 3.6.1 5.4-.1l2.1 2.2c.3.3.7.4 1.1.2l5.9-2.6c.4-.2.6-.5.6-.9l-.2-3.1c1.4-1.1 2.7-2.4 3.7-3.9l3.1.1c.4 0 .7-.2.9-.6l2.3-6c.1-.5 0-.9-.3-1.2zM14.7 40c-1.6-1.1-3-2.4-4.2-4-.2-.2-.5-.4-.8-.4h-.1l-2.9.2-2-4.7 2.1-2c.2-.2.3-.5.3-.9-.4-1.9-.4-3.9-.2-5.8 0-.3-.1-.6-.3-.8l-2.2-1.9L6.3 15l2.9.1c.3 0 .6-.2.8-.4 1.1-1.6 2.4-3 4-4.2.3-.2.4-.5.4-.8l-.2-2.9 4.7-2 2 2.1c.2.2.5.3.9.3 1.9-.3 3.9-.4 5.8-.2.3 0 .6-.1.8-.3l1.9-2.2L35 6.3l-.1 2.9c0 .3.1.6.4.8 1.6 1.1 3 2.4 4.2 4 .2.3.5.4.8.4l2.9-.2 2 4.7-2.1 2c-.2.2-.3.5-.3.8.4 1.9.4 3.9.2 5.8 0 .3.1.6.3.8l2.2 1.9-1.8 4.8-2.9-.1c-.3 0-.6.2-.8.4-1.1 1.6-2.4 3-4 4.2-.3.2-.4.5-.4.8l.2 2.9-4.7 2-2-2.1c-.2-.2-.5-.3-.9-.3-1.9.3-3.9.4-5.8.2-.3 0-.6.1-.8.3l-1.9 2.2-4.7-1.8.1-2.9c0-.3-.1-.6-.4-.8z"/><path class="st20" d="M25 25.8c2.9 0 5.3-2.4 5.3-5.3s-2.4-5.3-5.3-5.3-5.3 2.4-5.3 5.3 2.4 5.3 5.3 5.3zm0-8.7c1.9 0 3.4 1.5 3.4 3.4s-1.5 3.4-3.4 3.4-3.4-1.5-3.4-3.4 1.5-3.4 3.4-3.4z"/></svg>