<svg version="1.1" xmlns="http://www.w3.org/2000/svg" x="0" y="0" width="50" height="50" xml:space="preserve"><style>.st20{fill:#3871ff}</style><path class="st20" d="M50 25.1c0-2.4-1-4.7-2.7-6.4-1.8-1.7-4.1-2.7-6.6-2.7h-.6c-.5-7.8-7.1-14-15-14-3.3 0-6.5 1.1-9 3.1-2.4 1.8-4.1 4.3-5.1 7.2-6.4 1.1-11 6.5-11 13v.1C0 31.2 4.8 36 10.7 36h1.4v5.9c0 .3.1.5.3.7s.4.3.7.3h3.5V47c0 .4.2.7.5.9.1.1.3.1.5.1s.4-.1.6-.2l6.9-5H37c.3 0 .5-.1.7-.3.2-.2.3-.4.3-.7V36h1.4C45.2 36 50 31.2 50 25.3v-.2zM17.5 40.8H14V25.1h21.8v15.7H24.7c-.2 0-.4.1-.6.2l-5.5 4v-3.2c0-.5-.5-.9-1.1-1zm19.4-17.7H13.1c-.6 0-1 .5-1 1V34h-1.4C5.9 34 2 30.1 2 25.4v-.1-.1c0-5.7 4.2-10.4 9.8-11.1.4 0 .7-.3.8-.7C14.3 7.9 19.4 4 25.1 4c.6 0 1.2 0 1.8.1 6.4.9 11.2 6.4 11.2 12.8v.2c0 .3.1.6.4.8.2.2.5.3.8.2.4-.1.9-.1 1.4-.1 1.7 0 3.4.6 4.7 1.7 1.7 1.4 2.6 3.5 2.6 5.7v.2c-.1 4.7-3.9 8.4-8.7 8.4h-1.4v-9.8c0-.6-.4-1.1-1-1.1z"/><path class="st20" d="M20.3 38.1c.4 0 .6-.1.7-.4l.5-1.6h2.8l.5 1.6c.1.2.2.4.7.4.5 0 1.2-.3 1.2-.8v-.2l-2.5-8.3c-.1-.5-.7-.7-1.2-.7-.6 0-1.1.3-1.2.7l-2.5 8.3v.2c-.2.5.5.8 1 .8zm1.6-3.6l1-3.4 1 3.4h-2zM29.6 38.1c.6 0 .9-.3.9-.7v-8.5c0-.4-.4-.7-.9-.7-.6 0-.9.2-.9.7v8.5c0 .5.4.7.9.7z"/></svg>