<?xml version="1.0" encoding="utf-8"?>
<!-- Generator: Adobe Illustrator 16.0.0, SVG Export Plug-In . SVG Version: 6.00 Build 0)  -->
<!DOCTYPE svg PUBLIC "-//W3C//DTD SVG 1.1//EN" "http://www.w3.org/Graphics/SVG/1.1/DTD/svg11.dtd">
<svg version="1.1" id="Layer_1" xmlns="http://www.w3.org/2000/svg" xmlns:xlink="http://www.w3.org/1999/xlink" x="0px" y="0px"
	 width="110px" height="44.016px" viewBox="5 11.492 110 44.016" enable-background="new 5 11.492 110 44.016" xml:space="preserve"
	>
<g>
	<path fill="#FFFFFF" d="M32.397,27.118c1.836-0.187,3.653-1.25,4.706-2.128l3.039-13.498C35.89,21.43,25.533,22.151,16.706,25.55
		C7.877,28.951,6.176,34.707,5.718,37.125C5.263,39.545,5,43.206,5,43.206h3.038v4.97h3.892v-7.781H8.857
		c-0.066-2.286,1.174-5.101,3.791-6.146c2.619-1.051,5.754,0.061,6.802,2.094c0.63,1.222,0.85,2.614,3.728,7.126
		c2.878,4.511,8.761,4.186,8.761,4.186l2.148-9.655c-0.856,0.171-1.768,0.298-2.999,0.046c-2.054-0.431-4.574-3.133-7.518-6.02
		c-2.953-2.891-9.476-1.495-9.476-1.495c0.848-0.658,4.083-1.544,6.859-1.055c3.427,0.605,6.215,4.182,8.828,5.36
		c1.646,0.742,3.652,0.502,4.916,0.218l1.957-8.208c-0.884,0.518-2.09,1.192-3.669,1.591c-3.167,0.802-7.128-0.964-10.395-1.449
		c-3.368-0.494-9.481,1.898-9.481,1.898c2.579-1.843,5.514-2.833,8.57-2.989c1.93-0.103,3.522,0.498,5.299,0.869
		C28.735,27.133,30.6,27.302,32.397,27.118L32.397,27.118z"/>
	<path fill="#FFFFFF" d="M35.405,49.826c0.459,0,2.944,0,2.944,0l0.654-1.681c0,0-2.695,0.001-2.846,0.009
		c-1.085,0.049-3.074-0.191-3.533,2.135c-0.367,1.848,1.43,2.272,2.273,2.454c1.216,0.266,1.136,0.936,0.506,0.941
		c-0.848,0.011-6.766,0-6.766,0v-0.972h2.768l0.509-1.87h-3.277v-0.948h3.544l0.501-1.719h-6.369v6.686l-2.076-1.959
		c0,0,1.29-0.2,1.29-2.094c0-1.898-1.177-2.632-2.351-2.632c-1.179,0-4.253,0-4.253,0v5.508l-2.679-5.508H11.93v7.133h2.289v-1.1
		h2.027l0.521,1.1h4.46v-2.017l1.939,2.017c0,0,11.454,0,12.5,0c1.047,0,2.489-0.344,2.646-2.046
		c0.086-0.939-0.413-1.836-2.908-2.259C34.335,50.826,34.605,49.826,35.405,49.826L35.405,49.826z M14.251,52.183v-2.544
		l1.361,2.544H14.251L14.251,52.183z M22.98,51.238c-0.327,0-1.752,0-1.752,0v-1.413c0,0,1.099,0,1.492,0
		c0.391,0,0.448,0.264,0.448,0.592S23.195,51.238,22.98,51.238L22.98,51.238z"/>
	<polygon fill="#FFFFFF" points="115,55.508 40.89,55.508 40.89,51.924 115,51.924 	"/>
	<g>
		<g>
			<path fill="#FFFFFF" d="M46.164,37.436c0-0.3-4.93-0.749-5.228-0.524c-0.431,0.322-0.149,0.823,0.601,1.044
				C42.282,38.18,46.164,37.734,46.164,37.436L46.164,37.436z"/>
			<path fill="#FFFFFF" d="M46.24,39.228c0.065-0.227-4.78-0.301-5.154-0.301c-0.372,0-0.223,0.821,0.823,1.047
				C42.953,40.199,46.09,39.748,46.24,39.228L46.24,39.228z"/>
			<path fill="#FFFFFF" d="M46.255,48.732c0.529-0.097,1.492-0.289,1.492-0.436c0-0.29-4.815,0-5.681,0
				c-0.868,0-0.938,0.075-0.433,0.576c0.505,0.508,1.783,0.916,2.553,0.624C44.727,49.298,45.301,48.906,46.255,48.732
				L46.255,48.732z"/>
			<path fill="#FFFFFF" d="M51.305,48.732c-0.817-0.196-0.888-0.524-0.817-0.53c0.433-0.05,5.628,0,5.873,0
				c0.242,0-0.483,1.105-1.685,1.491C53.819,49.967,52.556,49.025,51.305,48.732L51.305,48.732z"/>
			<path fill="#FFFFFF" d="M55.726,41.077H42.012c-0.377,0-0.679,0.302-0.679,0.679v4.949c0,0.377,0.302,0.677,0.679,0.677h13.714
				c0.377,0,0.68-0.3,0.68-0.677v-4.949C56.405,41.379,56.102,41.077,55.726,41.077z M54.309,46.409c-0.234,0-10.692,0-10.89,0
				c-0.194,0-0.206-0.894,0-0.894c0.208,0,10.653,0,10.89,0C54.544,45.516,54.544,46.409,54.309,46.409z M54.309,44.629
				c-0.234,0-10.692,0-10.89,0c-0.194,0-0.206-0.893,0-0.893c0.208,0,10.653,0,10.89,0C54.544,43.736,54.544,44.629,54.309,44.629z
				 M54.309,42.851c-0.234,0-10.692,0-10.89,0c-0.194,0-0.206-0.892,0-0.892c0.208,0,10.653,0,10.89,0
				C54.544,41.959,54.544,42.851,54.309,42.851z"/>
			<path fill="#FFFFFF" d="M56.4,37.354c0-0.242-0.199-0.44-0.444-0.44h-5.604l-0.011,0.005l-0.266-0.009l0.5-0.296h-2.223
				l-2.096,1.814l1.552-0.021c0,0,0.652-0.472,1.036-0.602c0.1-0.033,1.542-0.16,1.542,0.209c0,0.258,0,0.688,0,0.688
				c-0.896,0.711-4.294,1.346-4.294,1.346v0.223h3.87c0,0,0.443-0.633,0.988-0.896c0.542-0.264,0.881,0.014,0.881,0.014l0.911,0.882
				h3.662v-0.369c-1.881-0.084-4.077-1.274-4.077-1.274s0.012-0.312,0-0.611c-0.002-0.135,0.027-0.194,0.245-0.221h2.001
				c0.179,0.034,0.262,0.117,0.262,0.314c0,0.497-0.897,0.968-0.897,0.968h1.98c0.269,0,0.486-0.22,0.486-0.488v-1.181l-0.006-0.027
				L56.4,37.354L56.4,37.354z"/>
		</g>
		<g>
			<path fill="#FFFFFF" d="M61.363,39.112c0.442,0,0.782-0.537,1.024-0.978c0.219-0.39,0.344-0.828,0-0.828
				c-0.342,0-2.491-0.149-2.491,0.243C59.896,37.943,60.924,39.112,61.363,39.112L61.363,39.112z"/>
			<path fill="#FFFFFF" d="M62.389,39.7c-0.343,0-2.169-0.051-2.201,0.194c-0.095,0.783,1.126,1.709,1.467,1.709
				c0.344,0,0.88-0.488,1.076-0.926C62.926,40.237,62.731,39.7,62.389,39.7L62.389,39.7z"/>
			<path fill="#FFFFFF" d="M74.552,37.249c0.6-0.222,0.635-0.646,0.635-0.646s-9.791,0-10.905,0c-0.846,0-0.212,1.143,0.323,1.143
				c0.541,0,5.378,0,5.682,0c0.31,0-0.342,1.156-1.172,1.211c-0.831,0.046-1.464-0.148-1.857-0.395
				c-0.389-0.243-1.219-0.05-1.219-0.05l1.854,1.382h-3l0,0c-0.342,0-0.608,0.277-0.636,0.619l-0.023-0.001v6.889
				c0.784-0.402,1.154-1.228,1.338-1.805h2.979c0,0,0,1.345,0,1.613c0,0.352,1.473,0.242,1.819-0.637
				c0.047-0.123,0.082-0.488,0.101-0.977h2.618v0.355l-1.514,1.268h2.258h0.222h0.096c0.319,0,0.568-0.24,0.624-0.561l0.023,0.007
				v-0.121v-5.972v-0.001c0-0.373-0.289-0.678-0.647-0.678l0,0h-3.114c-0.243-0.096-0.05-0.636,0.195-0.879
				C71.477,38.774,74.194,37.385,74.552,37.249L74.552,37.249z M68.38,44.556c-0.259,0-2.208,0-2.371,0
				c-0.171,0-0.192-1.354,0-1.354c0.184,0,2.206,0,2.371,0C68.603,43.202,68.571,44.556,68.38,44.556L68.38,44.556z M68.38,42.177
				c-0.259,0-2.208,0-2.371,0c-0.171,0-0.192-1.354,0-1.354c0.184,0,2.206,0,2.371,0C68.603,40.822,68.571,42.177,68.38,42.177
				L68.38,42.177z M72.98,44.556c-0.254,0-2.202,0-2.369,0c-0.166,0-0.187-1.354,0-1.354c0.186,0,2.211,0,2.369,0
				C73.206,43.202,73.174,44.556,72.98,44.556L72.98,44.556z M72.98,40.822c0.226,0,0.194,1.354,0,1.354c-0.254,0-2.202,0-2.369,0
				c-0.166,0-0.187-1.354,0-1.354C70.795,40.822,72.823,40.822,72.98,40.822L72.98,40.822z"/>
			<path fill="#FFFFFF" d="M75.187,47.896c-0.289,0-9.134,0.009-10.552,0.009c-1.417,0-1.61-0.587-1.61-1.022
				c0-0.228,0-0.624,0-0.681v-3.237v-0.028l-0.008-0.005c-0.019-0.36-0.311-0.644-0.671-0.644h-0.378L61.96,42.29h-0.042
				c-0.695,0-1.808,0-2.171,0c-0.485,0,0.394,1.17,0.394,1.17h1.151v2.44h-0.003l-0.158-0.041l-0.051-0.017
				c-0.087-0.03-0.189-0.068-0.302-0.132c-0.354-0.21-0.75-0.546-0.832-0.491c-0.148,0.1,1.124,1.517,1.075,2
				c-0.048,0.486-0.833,1.417-1.075,1.859c-0.245,0.438-0.684,0.731-0.245,0.638c0.372-0.086,1.591-1.018,1.885-1.203
				c0.367-0.23,0.728-0.141,0.949,0.075c0.217,0.219,0.49,0.732,1.321,0.732c0.83,0,9.622,0,10.305,0
				c0.335,0,0.681-0.481,0.884-0.886C75.158,48.234,75.215,47.896,75.187,47.896L75.187,47.896z"/>
		</g>
		<g>
			<polygon fill="#FFFFFF" points="112.596,36.615 114.163,36.615 112.273,38.76 114.18,40.74 112.568,40.74 110.797,38.76 			"/>
			<polygon fill="#FFFFFF" points="106.488,36.615 108.057,36.615 106.167,38.76 108.074,40.74 106.462,40.74 104.689,38.76 			"/>
			<polygon fill="#FFFFFF" points="109.539,36.615 111.111,36.615 109.222,38.76 111.127,40.74 109.516,40.74 107.744,38.76 			"/>
			<path fill="#FFFFFF" d="M98.456,37.004c0,0.197,0,12.722,0,12.722s1.156-0.641,1.404-2.481c0.109-0.789,0.161-1.175,0.161-1.811
				c0-0.472,2.162-0.487,2.162,0c0,0.733,0,2.29,0,2.923c0,0.628-1.946,1.369-1.626,1.369c0.178,0,1.247,0,2.493,0
				c0.786,0,0.781-0.978,0.781-1.271c0-0.259,0-9.264,0-11.372c0-0.277-0.241-0.479-0.47-0.479c-1.119,0-4.114,0-4.366,0
				C98.689,36.604,98.456,36.805,98.456,37.004z M102.257,43.026c0,0.374-0.306,0.681-0.682,0.681h-0.845
				c-0.377,0-0.68-0.307-0.68-0.681v-0.979c0-0.372,0.303-0.678,0.68-0.678h0.845c0.376,0,0.682,0.306,0.682,0.678V43.026
				L102.257,43.026z M102.257,39.647c0,0.373-0.306,0.678-0.682,0.678h-0.845c-0.377,0-0.68-0.305-0.68-0.678v-0.981
				c0-0.371,0.303-0.674,0.68-0.674h0.845c0.376,0,0.682,0.303,0.682,0.674V39.647L102.257,39.647z"/>
			<path fill="#FFFFFF" d="M113.459,42.132h-3.664l1.322-1.243h-1.156l-2.613,1.243h-1.952c-0.375,0-0.678,0.304-0.678,0.679v6.247
				c0,0.372,0.303,0.678,0.678,0.678h8.062c0.379,0,0.679-0.306,0.679-0.678v-6.247C114.137,42.436,113.836,42.132,113.459,42.132z
				 M112.583,47.729c0,0.377-0.302,0.678-0.677,0.678h-4.957c-0.374,0-0.678-0.301-0.678-0.678V44.16c0-0.375,0.304-0.68,0.678-0.68
				h4.957c0.375,0,0.677,0.305,0.677,0.68V47.729z"/>
			<path fill="#FFFFFF" d="M110.576,45.904c0.897-0.848,1.384-1.611,1.104-1.823c-0.281-0.211-1.227,0.207-2.262,0.948
				c-1.07-0.708-2.044-1.089-2.313-0.869c-0.262,0.221,0.263,0.966,1.203,1.781c-0.897,0.842-1.384,1.606-1.105,1.823
				c0.278,0.205,1.231-0.21,2.264-0.953c1.074,0.708,2.048,1.089,2.313,0.869C112.049,47.46,111.523,46.717,110.576,45.904z"/>
		</g>
		<g>
			<path fill="#FFFFFF" d="M84.927,41.167c-0.301,0-3.125,0-3.324,0c-0.197,0-0.171-0.699,0-0.699s3.217,0,3.324,0
				C85.133,40.468,85.163,41.167,84.927,41.167L84.927,41.167z"/>
			<path fill="#FFFFFF" d="M84.927,42.544c-0.301,0-3.125,0-3.324,0c-0.197,0-0.171-0.704,0-0.704s3.217,0,3.324,0
				C85.133,41.84,85.163,42.544,84.927,42.544L84.927,42.544z"/>
			<path fill="#FFFFFF" d="M79.565,36.604c2.458,0,12.564,0,14.699,0c0.187,0,0.349,0.179,0.302,0.395
				c-0.08,0.336-0.246,0.758-0.573,0.758c-0.291,0-5.947,0-5.947,0v1.11h6.197c0,0,0.387,0.195,0.387,0.501c0,0.88,0,2.649,0,2.907
				c0,0.339-1.938,0.633-1.938,0.339c0-0.292,0-1.854,0-2.197c0-0.34-0.438-0.831-0.878-0.831c-0.44,0-3.273,0-3.759,0
				c0,0,0,2.296,0,2.592c0,0.293-2.392,0.824-2.392,0.323v-2.915c0,0-3.732,0-4.125,0c-0.585,0-0.633,0.884-0.633,1.519
				c0,0.438,0.05,1.231,0,1.523c-0.056,0.326-1.851,0-1.851-0.34c0-0.383,0-0.035,0-2.989c0-0.108,0.201-0.431,0.538-0.431
				c1.43,0,5.839,0,6.07,0v-1.111c0,0-5.629,0-6.021,0c-0.25,0-0.421-0.477-0.511-0.822C79.08,36.749,79.3,36.604,79.565,36.604z"/>
			<path fill="#FFFFFF" d="M92.145,41.167c-0.301,0-3.13,0-3.325,0c-0.197,0-0.17-0.699,0-0.699c0.172,0,3.218,0,3.325,0
				C92.349,40.468,92.383,41.167,92.145,41.167L92.145,41.167z"/>
			<path fill="#FFFFFF" d="M92.145,42.544c-0.301,0-3.13,0-3.325,0c-0.197,0-0.17-0.704,0-0.704c0.172,0,3.218,0,3.325,0
				C92.349,41.84,92.383,42.544,92.145,42.544L92.145,42.544z"/>
			<path fill="#FFFFFF" d="M93.19,48.478c-0.977,0.005-4.262,0-4.748,0c-0.487,0-0.386,0.099-0.386-0.635v-0.356h5.894
				c0.374,0,0.679-0.318,0.679-0.69v-2.6c0-0.375-0.305-0.682-0.679-0.682H79.746c-0.376,0-0.681,0.307-0.681,0.682v2.6
				c0,0.373,0.305,0.69,0.681,0.69h5.928c0.024,0.418,0,1.251,0,1.43c0,0.246,0.175,0.808,1.151,0.808
				c0.979,0,7.461,0.002,7.804,0.002C94.854,49.726,94.03,48.476,93.19,48.478z M88.219,44.339c0.213,0,4.499,0,4.609,0
				c0.238,0,0.15,0.783,0,0.783c-0.151,0-4.396,0-4.609,0C88.01,45.122,88.01,44.339,88.219,44.339z M88.219,45.962
				c0.213,0,4.499,0,4.609,0c0.238,0,0.15,0.782,0,0.782c-0.151,0-4.396,0-4.609,0C88.01,46.744,88.01,45.962,88.219,45.962z
				 M85.527,46.744c-0.15,0-4.394,0-4.606,0c-0.216,0-0.216-0.782,0-0.782c0.213,0,4.496,0,4.606,0
				C85.767,45.962,85.681,46.744,85.527,46.744z M85.527,45.122c-0.15,0-4.394,0-4.606,0c-0.216,0-0.216-0.783,0-0.783
				c0.213,0,4.496,0,4.606,0C85.767,44.339,85.681,45.122,85.527,45.122z"/>
		</g>
	</g>
</g>
</svg>
